<?xml version="1.0" encoding="UTF-8" standalone="no"?>
<!DOCTYPE svg PUBLIC "-//W3C//DTD SVG 1.1//EN"
 "http://www.w3.org/Graphics/SVG/1.1/DTD/svg11.dtd">
<!-- Generated by graphviz version 2.43.0 (0)
 -->
<!-- Title: %3 Pages: 1 -->
<svg width="3114pt" height="569pt"
 viewBox="0.00 0.00 3113.50 569.00" xmlns="http://www.w3.org/2000/svg" xmlns:xlink="http://www.w3.org/1999/xlink">
<g id="graph0" class="graph" transform="scale(1 1) rotate(0) translate(4 565)">
<title>%3</title>
<polygon fill="white" stroke="transparent" points="-4,4 -4,-565 3109.5,-565 3109.5,4 -4,4"/>
<g id="clust6" class="cluster">
<title>cluster1</title>
<polygon fill="none" stroke="black" points="2963.5,-190 2963.5,-351 3097.5,-351 3097.5,-190 2963.5,-190"/>
</g>
<!-- hamid_hanif -->
<g id="node1" class="node">
<title>hamid_hanif</title>
<polygon fill="#e0eeee" stroke="black" points="1360,-561 1179,-561 1179,-525 1360,-525 1360,-561"/>
<text text-anchor="middle" x="1269.5" y="-539.3" font-family="Times,serif" font-size="14.00">Md Abdul Hamid Miazi</text>
</g>
<!-- h0 -->
<g id="node40" class="node">
<title>h0</title>
<ellipse fill="none" stroke="black" cx="1378.5" cy="-543" rx="0.5" ry="0.5"/>
</g>
<!-- hamid_hanif&#45;&gt;h0 -->
<g id="edge1" class="edge">
<title>hamid_hanif&#45;&gt;h0</title>
<path fill="none" stroke="black" d="M1360.01,-543C1368.97,-543 1375.58,-543 1377.74,-543"/>
</g>
<!-- Unknown -->
<g id="node2" class="node">
<title>Unknown</title>
<polygon fill="bisque" stroke="black" points="1480.5,-561 1396.5,-561 1396.5,-525 1480.5,-525 1480.5,-561"/>
<text text-anchor="middle" x="1438.5" y="-539.3" font-family="Times,serif" font-size="14.00">Unknown</text>
</g>
<!-- kaiyum_hamid -->
<g id="node3" class="node">
<title>kaiyum_hamid</title>
<polygon fill="#e0eeee" stroke="black" points="1472.5,-452 1284.5,-452 1284.5,-416 1472.5,-416 1472.5,-452"/>
<text text-anchor="middle" x="1378.5" y="-430.3" font-family="Times,serif" font-size="14.00">Md Abdul Kaiyum Miazi</text>
</g>
<!-- h1 -->
<g id="node42" class="node">
<title>h1</title>
<ellipse fill="none" stroke="black" cx="1491.5" cy="-434" rx="0.5" ry="0.5"/>
</g>
<!-- kaiyum_hamid&#45;&gt;h1 -->
<g id="edge5" class="edge">
<title>kaiyum_hamid&#45;&gt;h1</title>
<path fill="none" stroke="black" d="M1472.59,-434C1481.76,-434 1488.51,-434 1490.72,-434"/>
</g>
<!-- AmbiaKhatun -->
<g id="node4" class="node">
<title>AmbiaKhatun</title>
<polygon fill="bisque" stroke="black" points="1628.5,-452 1510.5,-452 1510.5,-416 1628.5,-416 1628.5,-452"/>
<text text-anchor="middle" x="1569.5" y="-430.3" font-family="Times,serif" font-size="14.00">Ambia Khatun</text>
</g>
<!-- fazlur_kaiyum -->
<g id="node5" class="node">
<title>fazlur_kaiyum</title>
<polygon fill="#e0eeee" stroke="black" points="601,-343 418,-343 418,-307 601,-307 601,-343"/>
<text text-anchor="middle" x="509.5" y="-321.3" font-family="Times,serif" font-size="14.00">Md Fazlur Rahim Miazi</text>
</g>
<!-- h2 -->
<g id="node49" class="node">
<title>h2</title>
<ellipse fill="none" stroke="black" cx="619.5" cy="-325" rx="0.5" ry="0.5"/>
</g>
<!-- fazlur_kaiyum&#45;&gt;h2 -->
<g id="edge17" class="edge">
<title>fazlur_kaiyum&#45;&gt;h2</title>
<path fill="none" stroke="black" d="M601.34,-325C610.15,-325 616.63,-325 618.75,-325"/>
</g>
<!-- bazlur_kaiyum -->
<g id="node6" class="node">
<title>bazlur_kaiyum</title>
<polygon fill="#e0eeee" stroke="black" points="938,-343 753,-343 753,-307 938,-307 938,-343"/>
<text text-anchor="middle" x="845.5" y="-321.3" font-family="Times,serif" font-size="14.00">Md Bazlur Rahim Miazi</text>
</g>
<!-- h3 -->
<g id="node50" class="node">
<title>h3</title>
<ellipse fill="none" stroke="black" cx="956.5" cy="-325" rx="0.5" ry="0.5"/>
</g>
<!-- bazlur_kaiyum&#45;&gt;h3 -->
<g id="edge20" class="edge">
<title>bazlur_kaiyum&#45;&gt;h3</title>
<path fill="none" stroke="black" d="M938.17,-325C947.07,-325 953.61,-325 955.75,-325"/>
</g>
<!-- ataur_kaiyum -->
<g id="node7" class="node">
<title>ataur_kaiyum</title>
<polygon fill="#e0eeee" stroke="black" points="1587,-343 1396,-343 1396,-307 1587,-307 1587,-343"/>
<text text-anchor="middle" x="1491.5" y="-321.3" font-family="Times,serif" font-size="14.00">Md Ataur Rahman Miazi</text>
</g>
<!-- h5 -->
<g id="node51" class="node">
<title>h5</title>
<ellipse fill="none" stroke="black" cx="1697.5" cy="-325" rx="0.5" ry="0.5"/>
</g>
<!-- ataur_kaiyum&#45;&gt;h5 -->
<g id="edge23" class="edge">
<title>ataur_kaiyum&#45;&gt;h5</title>
<path fill="none" stroke="black" d="M1587.26,-325C1637.7,-325 1690.46,-325 1696.85,-325"/>
</g>
<!-- zakir_kaiyum -->
<g id="node8" class="node">
<title>zakir_kaiyum</title>
<polygon fill="#e0eeee" stroke="black" points="2071.5,-343 1889.5,-343 1889.5,-307 2071.5,-307 2071.5,-343"/>
<text text-anchor="middle" x="1980.5" y="-321.3" font-family="Times,serif" font-size="14.00">Md Zakir Hossen Miazi</text>
</g>
<!-- h7 -->
<g id="node52" class="node">
<title>h7</title>
<ellipse fill="none" stroke="black" cx="2152.5" cy="-325" rx="0.5" ry="0.5"/>
</g>
<!-- zakir_kaiyum&#45;&gt;h7 -->
<g id="edge26" class="edge">
<title>zakir_kaiyum&#45;&gt;h7</title>
<path fill="none" stroke="black" d="M2071.54,-325C2109.57,-325 2146.29,-325 2151.79,-325"/>
</g>
<!-- SufiaAkter -->
<g id="node9" class="node">
<title>SufiaAkter</title>
<polygon fill="bisque" stroke="black" points="734.5,-343 638.5,-343 638.5,-307 734.5,-307 734.5,-343"/>
<text text-anchor="middle" x="686.5" y="-321.3" font-family="Times,serif" font-size="14.00">Sufia Akter</text>
</g>
<!-- SufiaAkter&#45;&gt;bazlur_kaiyum -->
<!-- MdBakiMiazi -->
<g id="node10" class="node">
<title>MdBakiMiazi</title>
<polygon fill="#e0eeee" stroke="black" points="119,-153.5 0,-153.5 0,-117.5 119,-117.5 119,-153.5"/>
<text text-anchor="middle" x="59.5" y="-131.8" font-family="Times,serif" font-size="14.00">Md Baki Miazi</text>
</g>
<!-- MdSaifulIslamMiazi -->
<g id="node11" class="node">
<title>MdSaifulIslamMiazi</title>
<polygon fill="#e0eeee" stroke="black" points="310,-154.5 137,-154.5 137,-116.5 310,-116.5 310,-154.5"/>
<text text-anchor="middle" x="223.5" y="-139.3" font-family="Times,serif" font-size="14.00">Md Saiful Islam Miazi</text>
<text text-anchor="middle" x="223.5" y="-124.3" font-family="Times,serif" font-size="14.00">« Nurul»</text>
</g>
<!-- MdBakiMiazi&#45;&gt;MdSaifulIslamMiazi -->
<!-- MdZahirMiazi -->
<g id="node12" class="node">
<title>MdZahirMiazi</title>
<polygon fill="#e0eeee" stroke="black" points="454.5,-153.5 328.5,-153.5 328.5,-117.5 454.5,-117.5 454.5,-153.5"/>
<text text-anchor="middle" x="391.5" y="-131.8" font-family="Times,serif" font-size="14.00">Md Zahir Miazi</text>
</g>
<!-- MdSaifulIslamMiazi&#45;&gt;MdZahirMiazi -->
<!-- ayuba_bazlur -->
<g id="node14" class="node">
<title>ayuba_bazlur</title>
<polygon fill="bisque" stroke="black" points="584,-154.5 473,-154.5 473,-116.5 584,-116.5 584,-154.5"/>
<text text-anchor="middle" x="528.5" y="-139.3" font-family="Times,serif" font-size="14.00">Ayuba Ansari</text>
<text text-anchor="middle" x="528.5" y="-124.3" font-family="Times,serif" font-size="14.00">« Maksuda»</text>
</g>
<!-- MdZahirMiazi&#45;&gt;ayuba_bazlur -->
<!-- ShahnazPervin -->
<g id="node13" class="node">
<title>ShahnazPervin</title>
<polygon fill="bisque" stroke="black" points="1194.5,-343 1066.5,-343 1066.5,-307 1194.5,-307 1194.5,-343"/>
<text text-anchor="middle" x="1130.5" y="-321.3" font-family="Times,serif" font-size="14.00">Shahnaz Pervin</text>
</g>
<!-- ShahnazPervin&#45;&gt;ataur_kaiyum -->
<!-- h4 -->
<g id="node73" class="node">
<title>h4</title>
<ellipse fill="none" stroke="black" cx="602.5" cy="-135.5" rx="0.5" ry="0.5"/>
</g>
<!-- ayuba_bazlur&#45;&gt;h4 -->
<g id="edge72" class="edge">
<title>ayuba_bazlur&#45;&gt;h4</title>
<path fill="none" stroke="black" d="M584.21,-135C594.06,-135 601.52,-135 602.41,-135"/>
</g>
<!-- MdAlAmin -->
<g id="node15" class="node">
<title>MdAlAmin</title>
<polygon fill="#e0eeee" stroke="black" points="879.5,-162 767.5,-162 767.5,-109 879.5,-109 879.5,-162"/>
<text text-anchor="middle" x="823.5" y="-146.8" font-family="Times,serif" font-size="14.00">Md Al Amin</text>
<text text-anchor="middle" x="823.5" y="-131.8" font-family="Times,serif" font-size="14.00">« Mozammil»</text>
<text text-anchor="middle" x="823.5" y="-116.8" font-family="Times,serif" font-size="14.00">1992</text>
</g>
<!-- NowshinLaylaArju -->
<g id="node16" class="node">
<title>NowshinLaylaArju</title>
<polygon fill="bisque" stroke="black" points="1053.5,-154.5 897.5,-154.5 897.5,-116.5 1053.5,-116.5 1053.5,-154.5"/>
<text text-anchor="middle" x="975.5" y="-139.3" font-family="Times,serif" font-size="14.00">Nowshin Layla Arju</text>
<text text-anchor="middle" x="975.5" y="-124.3" font-family="Times,serif" font-size="14.00">1997</text>
</g>
<!-- MdAlAmin&#45;&gt;NowshinLaylaArju -->
<!-- MahdiHasnatSiyam -->
<g id="node17" class="node">
<title>MahdiHasnatSiyam</title>
<polygon fill="#e0eeee" stroke="black" points="1237.5,-154.5 1071.5,-154.5 1071.5,-116.5 1237.5,-116.5 1237.5,-154.5"/>
<text text-anchor="middle" x="1154.5" y="-139.3" font-family="Times,serif" font-size="14.00">Mahdi Hasnat Siyam</text>
<text text-anchor="middle" x="1154.5" y="-124.3" font-family="Times,serif" font-size="14.00">1999</text>
</g>
<!-- NowshinLaylaArju&#45;&gt;MahdiHasnatSiyam -->
<!-- rehena_ataur -->
<g id="node22" class="node">
<title>rehena_ataur</title>
<polygon fill="bisque" stroke="black" points="1369,-153.5 1256,-153.5 1256,-117.5 1369,-117.5 1369,-153.5"/>
<text text-anchor="middle" x="1312.5" y="-131.8" font-family="Times,serif" font-size="14.00">Rehena Akter</text>
</g>
<!-- MahdiHasnatSiyam&#45;&gt;rehena_ataur -->
<!-- MdJalalSarker -->
<g id="node18" class="node">
<title>MdJalalSarker</title>
<polygon fill="#e0eeee" stroke="black" points="749.5,-153.5 621.5,-153.5 621.5,-117.5 749.5,-117.5 749.5,-153.5"/>
<text text-anchor="middle" x="685.5" y="-131.8" font-family="Times,serif" font-size="14.00">Md Jalal Sarker</text>
</g>
<!-- MdJalalSarker&#45;&gt;MdAlAmin -->
<!-- RishadRahbarMahin -->
<g id="node19" class="node">
<title>RishadRahbarMahin</title>
<polygon fill="#e0eeee" stroke="black" points="669,-36 498,-36 498,0 669,0 669,-36"/>
<text text-anchor="middle" x="583.5" y="-14.3" font-family="Times,serif" font-size="14.00">Rishad Rahbar Mahin</text>
</g>
<!-- SidratulMuntaha -->
<g id="node20" class="node">
<title>SidratulMuntaha</title>
<polygon fill="bisque" stroke="black" points="1011,-36 868,-36 868,0 1011,0 1011,-36"/>
<text text-anchor="middle" x="939.5" y="-14.3" font-family="Times,serif" font-size="14.00">Sidratul Muntaha</text>
</g>
<!-- RishadRahbarMahin&#45;&gt;SidratulMuntaha -->
<!-- MdZunayed -->
<g id="node27" class="node">
<title>MdZunayed</title>
<polygon fill="#e0eeee" stroke="black" points="1226.5,-36 1120.5,-36 1120.5,0 1226.5,0 1226.5,-36"/>
<text text-anchor="middle" x="1173.5" y="-14.3" font-family="Times,serif" font-size="14.00">Md Zunayed</text>
</g>
<!-- SidratulMuntaha&#45;&gt;MdZunayed -->
<!-- HalimaKhatun -->
<g id="node21" class="node">
<title>HalimaKhatun</title>
<polygon fill="bisque" stroke="black" points="1855.5,-343 1731.5,-343 1731.5,-307 1855.5,-307 1855.5,-343"/>
<text text-anchor="middle" x="1793.5" y="-321.3" font-family="Times,serif" font-size="14.00">Halima Khatun</text>
</g>
<!-- HalimaKhatun&#45;&gt;zakir_kaiyum -->
<!-- h6 -->
<g id="node74" class="node">
<title>h6</title>
<ellipse fill="none" stroke="black" cx="1387.5" cy="-135.5" rx="0.5" ry="0.5"/>
</g>
<!-- rehena_ataur&#45;&gt;h6 -->
<g id="edge78" class="edge">
<title>rehena_ataur&#45;&gt;h6</title>
<path fill="none" stroke="black" d="M1369.34,-135C1379.15,-135 1386.53,-135 1387.41,-135"/>
</g>
<!-- MdRayhanIslamMiazi -->
<g id="node23" class="node">
<title>MdRayhanIslamMiazi</title>
<polygon fill="#e0eeee" stroke="black" points="1740,-154.5 1555,-154.5 1555,-116.5 1740,-116.5 1740,-154.5"/>
<text text-anchor="middle" x="1647.5" y="-139.3" font-family="Times,serif" font-size="14.00">Md Rayhan Islam Miazi</text>
<text text-anchor="middle" x="1647.5" y="-124.3" font-family="Times,serif" font-size="14.00">1996</text>
</g>
<!-- MdHabibMiazi -->
<g id="node24" class="node">
<title>MdHabibMiazi</title>
<polygon fill="#e0eeee" stroke="black" points="1889,-153.5 1758,-153.5 1758,-117.5 1889,-117.5 1889,-153.5"/>
<text text-anchor="middle" x="1823.5" y="-131.8" font-family="Times,serif" font-size="14.00">Md Habib Miazi</text>
</g>
<!-- MdRayhanIslamMiazi&#45;&gt;MdHabibMiazi -->
<!-- MdSayedMiazi -->
<g id="node25" class="node">
<title>MdSayedMiazi</title>
<polygon fill="#e0eeee" stroke="black" points="2038,-154.5 1907,-154.5 1907,-116.5 2038,-116.5 2038,-154.5"/>
<text text-anchor="middle" x="1972.5" y="-139.3" font-family="Times,serif" font-size="14.00">Md Sayed Miazi</text>
<text text-anchor="middle" x="1972.5" y="-124.3" font-family="Times,serif" font-size="14.00">2004</text>
</g>
<!-- MdHabibMiazi&#45;&gt;MdSayedMiazi -->
<!-- RakibulHasanRiaz -->
<g id="node31" class="node">
<title>RakibulHasanRiaz</title>
<polygon fill="#e0eeee" stroke="black" points="2211,-153.5 2056,-153.5 2056,-117.5 2211,-117.5 2211,-153.5"/>
<text text-anchor="middle" x="2133.5" y="-131.8" font-family="Times,serif" font-size="14.00">Rakibul Hasan Riaz</text>
</g>
<!-- MdSayedMiazi&#45;&gt;RakibulHasanRiaz -->
<!-- MdOmorFaruk -->
<g id="node26" class="node">
<title>MdOmorFaruk</title>
<polygon fill="#e0eeee" stroke="black" points="1536.5,-154.5 1406.5,-154.5 1406.5,-116.5 1536.5,-116.5 1536.5,-154.5"/>
<text text-anchor="middle" x="1471.5" y="-139.3" font-family="Times,serif" font-size="14.00">Md Omor Faruk</text>
<text text-anchor="middle" x="1471.5" y="-124.3" font-family="Times,serif" font-size="14.00">« Bokul»</text>
</g>
<!-- MdOmorFaruk&#45;&gt;MdRayhanIslamMiazi -->
<!-- MdZobayer -->
<g id="node28" class="node">
<title>MdZobayer</title>
<polygon fill="#e0eeee" stroke="black" points="1393,-36 1290,-36 1290,0 1393,0 1393,-36"/>
<text text-anchor="middle" x="1341.5" y="-14.3" font-family="Times,serif" font-size="14.00">Md Zobayer</text>
</g>
<!-- MdZunayed&#45;&gt;MdZobayer -->
<!-- Sumaiya -->
<g id="node29" class="node">
<title>Sumaiya</title>
<polygon fill="bisque" stroke="black" points="1489.5,-36 1411.5,-36 1411.5,0 1489.5,0 1489.5,-36"/>
<text text-anchor="middle" x="1450.5" y="-14.3" font-family="Times,serif" font-size="14.00">Sumaiya</text>
</g>
<!-- MdZobayer&#45;&gt;Sumaiya -->
<!-- AnishaMehzabin -->
<g id="node38" class="node">
<title>AnishaMehzabin</title>
<polygon fill="bisque" stroke="black" points="1647,-36 1508,-36 1508,0 1647,0 1647,-36"/>
<text text-anchor="middle" x="1577.5" y="-14.3" font-family="Times,serif" font-size="14.00">Anisha Mehzabin</text>
</g>
<!-- Sumaiya&#45;&gt;AnishaMehzabin -->
<!-- RubiAkter -->
<g id="node30" class="node">
<title>RubiAkter</title>
<polygon fill="bisque" stroke="black" points="2264,-343 2171,-343 2171,-307 2264,-307 2264,-343"/>
<text text-anchor="middle" x="2217.5" y="-321.3" font-family="Times,serif" font-size="14.00">Rubi Akter</text>
</g>
<!-- JerinSultana -->
<g id="node32" class="node">
<title>JerinSultana</title>
<polygon fill="bisque" stroke="black" points="2339.5,-153.5 2229.5,-153.5 2229.5,-117.5 2339.5,-117.5 2339.5,-153.5"/>
<text text-anchor="middle" x="2284.5" y="-131.8" font-family="Times,serif" font-size="14.00">Jerin Sultana</text>
</g>
<!-- RakibulHasanRiaz&#45;&gt;JerinSultana -->
<!-- jasim_hannan -->
<g id="node34" class="node">
<title>jasim_hannan</title>
<polygon fill="#e0eeee" stroke="black" points="2489,-153.5 2358,-153.5 2358,-117.5 2489,-117.5 2489,-153.5"/>
<text text-anchor="middle" x="2423.5" y="-131.8" font-family="Times,serif" font-size="14.00">Md Jasim Uddin</text>
</g>
<!-- JerinSultana&#45;&gt;jasim_hannan -->
<!-- MdHannan -->
<g id="node33" class="node">
<title>MdHannan</title>
<polygon fill="#e0eeee" stroke="black" points="3073.5,-234 2973.5,-234 2973.5,-198 3073.5,-198 3073.5,-234"/>
<text text-anchor="middle" x="3023.5" y="-212.3" font-family="Times,serif" font-size="14.00">Md Hannan</text>
</g>
<!-- h9 -->
<g id="node75" class="node">
<title>h9</title>
<ellipse fill="none" stroke="black" cx="2507.5" cy="-135.5" rx="0.5" ry="0.5"/>
</g>
<!-- jasim_hannan&#45;&gt;h9 -->
<g id="edge86" class="edge">
<title>jasim_hannan&#45;&gt;h9</title>
<path fill="none" stroke="black" d="M2489.27,-135C2499.24,-135 2506.54,-135 2507.41,-135"/>
</g>
<!-- mahi_hannan -->
<g id="node35" class="node">
<title>mahi_hannan</title>
<polygon fill="#e0eeee" stroke="black" points="2730.5,-153.5 2650.5,-153.5 2650.5,-117.5 2730.5,-117.5 2730.5,-153.5"/>
<text text-anchor="middle" x="2690.5" y="-131.8" font-family="Times,serif" font-size="14.00">Md Mahi</text>
</g>
<!-- h10 -->
<g id="node76" class="node">
<title>h10</title>
<ellipse fill="none" stroke="black" cx="2749.5" cy="-135.5" rx="0.5" ry="0.5"/>
</g>
<!-- mahi_hannan&#45;&gt;h10 -->
<g id="edge89" class="edge">
<title>mahi_hannan&#45;&gt;h10</title>
<path fill="none" stroke="black" d="M2730.51,-135C2740.37,-135 2748.43,-135 2749.4,-135"/>
</g>
<!-- SarminAkter -->
<g id="node36" class="node">
<title>SarminAkter</title>
<polygon fill="bisque" stroke="black" points="3010.5,-153.5 2898.5,-153.5 2898.5,-117.5 3010.5,-117.5 3010.5,-153.5"/>
<text text-anchor="middle" x="2954.5" y="-131.8" font-family="Times,serif" font-size="14.00">Sarmin Akter</text>
</g>
<!-- ArinSultana -->
<g id="node37" class="node">
<title>ArinSultana</title>
<polygon fill="bisque" stroke="black" points="2632.5,-153.5 2526.5,-153.5 2526.5,-117.5 2632.5,-117.5 2632.5,-153.5"/>
<text text-anchor="middle" x="2579.5" y="-131.8" font-family="Times,serif" font-size="14.00">Arin Sultana</text>
</g>
<!-- ArinSultana&#45;&gt;mahi_hannan -->
<!-- SaymaZafori -->
<g id="node39" class="node">
<title>SaymaZafori</title>
<polygon fill="bisque" stroke="black" points="2880.5,-153.5 2768.5,-153.5 2768.5,-117.5 2880.5,-117.5 2880.5,-153.5"/>
<text text-anchor="middle" x="2824.5" y="-131.8" font-family="Times,serif" font-size="14.00">Sayma Zafori</text>
</g>
<!-- SaymaZafori&#45;&gt;SarminAkter -->
<!-- h0&#45;&gt;Unknown -->
<g id="edge2" class="edge">
<title>h0&#45;&gt;Unknown</title>
<path fill="none" stroke="black" d="M1379.17,-543C1381.29,-543 1388.13,-543 1396.46,-543"/>
</g>
<!-- h0_0 -->
<g id="node41" class="node">
<title>h0_0</title>
<ellipse fill="none" stroke="black" cx="1378.5" cy="-488.5" rx="0.5" ry="0.5"/>
</g>
<!-- h0&#45;&gt;h0_0 -->
<g id="edge3" class="edge">
<title>h0&#45;&gt;h0_0</title>
<path fill="none" stroke="black" d="M1378.5,-542.39C1378.5,-536.77 1378.5,-494.32 1378.5,-489.04"/>
</g>
<!-- h0_0&#45;&gt;kaiyum_hamid -->
<g id="edge4" class="edge">
<title>h0_0&#45;&gt;kaiyum_hamid</title>
<path fill="none" stroke="black" d="M1378.5,-487.89C1378.5,-484.38 1378.5,-466.48 1378.5,-452.26"/>
</g>
<!-- h1&#45;&gt;AmbiaKhatun -->
<g id="edge6" class="edge">
<title>h1&#45;&gt;AmbiaKhatun</title>
<path fill="none" stroke="black" d="M1492.38,-434C1494.72,-434 1501.55,-434 1510.23,-434"/>
</g>
<!-- h1_2 -->
<g id="node45" class="node">
<title>h1_2</title>
<ellipse fill="none" stroke="black" cx="1491.5" cy="-379.5" rx="0.5" ry="0.5"/>
</g>
<!-- h1&#45;&gt;h1_2 -->
<g id="edge11" class="edge">
<title>h1&#45;&gt;h1_2</title>
<path fill="none" stroke="black" d="M1491.5,-433.39C1491.5,-427.77 1491.5,-385.32 1491.5,-380.04"/>
</g>
<!-- h1_0 -->
<g id="node43" class="node">
<title>h1_0</title>
<ellipse fill="none" stroke="black" cx="509.5" cy="-379.5" rx="0.5" ry="0.5"/>
</g>
<!-- h1_0&#45;&gt;fazlur_kaiyum -->
<g id="edge12" class="edge">
<title>h1_0&#45;&gt;fazlur_kaiyum</title>
<path fill="none" stroke="black" d="M509.5,-378.89C509.5,-375.38 509.5,-357.48 509.5,-343.26"/>
</g>
<!-- h1_1 -->
<g id="node44" class="node">
<title>h1_1</title>
<ellipse fill="none" stroke="black" cx="845.5" cy="-379.5" rx="0.5" ry="0.5"/>
</g>
<!-- h1_0&#45;&gt;h1_1 -->
<g id="edge7" class="edge">
<title>h1_0&#45;&gt;h1_1</title>
<path fill="none" stroke="black" d="M509.56,-379C514.69,-379 840.35,-379 845.44,-379"/>
</g>
<!-- h1_1&#45;&gt;bazlur_kaiyum -->
<g id="edge13" class="edge">
<title>h1_1&#45;&gt;bazlur_kaiyum</title>
<path fill="none" stroke="black" d="M845.5,-378.89C845.5,-375.38 845.5,-357.48 845.5,-343.26"/>
</g>
<!-- h1_1&#45;&gt;h1_2 -->
<g id="edge8" class="edge">
<title>h1_1&#45;&gt;h1_2</title>
<path fill="none" stroke="black" d="M845.62,-379C855.48,-379 1481.6,-379 1491.38,-379"/>
</g>
<!-- h1_2&#45;&gt;ataur_kaiyum -->
<g id="edge14" class="edge">
<title>h1_2&#45;&gt;ataur_kaiyum</title>
<path fill="none" stroke="black" d="M1491.5,-378.89C1491.5,-375.38 1491.5,-357.48 1491.5,-343.26"/>
</g>
<!-- h1_3 -->
<g id="node46" class="node">
<title>h1_3</title>
<ellipse fill="none" stroke="black" cx="1980.5" cy="-379.5" rx="0.5" ry="0.5"/>
</g>
<!-- h1_2&#45;&gt;h1_3 -->
<g id="edge9" class="edge">
<title>h1_2&#45;&gt;h1_3</title>
<path fill="none" stroke="black" d="M1491.59,-379C1499.05,-379 1973.01,-379 1980.41,-379"/>
</g>
<!-- h1_3&#45;&gt;zakir_kaiyum -->
<g id="edge15" class="edge">
<title>h1_3&#45;&gt;zakir_kaiyum</title>
<path fill="none" stroke="black" d="M1980.5,-378.89C1980.5,-375.38 1980.5,-357.48 1980.5,-343.26"/>
</g>
<!-- h1_4 -->
<g id="node47" class="node">
<title>h1_4</title>
<ellipse fill="none" stroke="black" cx="3030.5" cy="-379.5" rx="0.5" ry="0.5"/>
</g>
<!-- h1_3&#45;&gt;h1_4 -->
<g id="edge10" class="edge">
<title>h1_3&#45;&gt;h1_4</title>
<path fill="none" stroke="black" d="M1980.55,-379C1988.66,-379 3022.38,-379 3030.45,-379"/>
</g>
<!-- jamila_kaiyum -->
<g id="node48" class="node">
<title>jamila_kaiyum</title>
<polygon fill="bisque" stroke="black" points="3089,-343 2972,-343 2972,-307 3089,-307 3089,-343"/>
<text text-anchor="middle" x="3030.5" y="-321.3" font-family="Times,serif" font-size="14.00">Jamila Khatun</text>
</g>
<!-- h1_4&#45;&gt;jamila_kaiyum -->
<g id="edge16" class="edge">
<title>h1_4&#45;&gt;jamila_kaiyum</title>
<path fill="none" stroke="black" d="M3030.5,-378.89C3030.5,-375.38 3030.5,-357.48 3030.5,-343.26"/>
</g>
<!-- h8 -->
<g id="node53" class="node">
<title>h8</title>
<ellipse fill="none" stroke="black" cx="2972.5" cy="-270.5" rx="0.5" ry="0.5"/>
</g>
<!-- jamila_kaiyum&#45;&gt;h8 -->
<g id="edge28" class="edge">
<title>jamila_kaiyum&#45;&gt;h8</title>
<path fill="none" stroke="black" d="M2972.75,-306.85C2972.75,-292.48 2972.75,-274.3 2972.75,-271.02"/>
</g>
<!-- h2&#45;&gt;SufiaAkter -->
<g id="edge18" class="edge">
<title>h2&#45;&gt;SufiaAkter</title>
<path fill="none" stroke="black" d="M620.25,-325C622.5,-325 629.52,-325 638.21,-325"/>
</g>
<!-- h2_1 -->
<g id="node58" class="node">
<title>h2_1</title>
<ellipse fill="none" stroke="black" cx="223.5" cy="-216" rx="0.5" ry="0.5"/>
</g>
<!-- h2&#45;&gt;h2_1 -->
<g id="edge52" class="edge">
<title>h2&#45;&gt;h2_1</title>
<path fill="none" stroke="black" d="M619.5,-324.11C619.5,-318.57 619.5,-289 619.5,-289 619.5,-289 223.5,-289 223.5,-289 223.5,-289 223.5,-224.84 223.5,-216.82"/>
</g>
<!-- h3&#45;&gt;ShahnazPervin -->
<g id="edge21" class="edge">
<title>h3&#45;&gt;ShahnazPervin</title>
<path fill="none" stroke="black" d="M957.28,-325C964.46,-325 1020.15,-325 1066.48,-325"/>
</g>
<!-- h3_2 -->
<g id="node62" class="node">
<title>h3_2</title>
<ellipse fill="none" stroke="black" cx="956.5" cy="-216" rx="0.5" ry="0.5"/>
</g>
<!-- h3&#45;&gt;h3_2 -->
<g id="edge56" class="edge">
<title>h3&#45;&gt;h3_2</title>
<path fill="none" stroke="black" d="M956.5,-324.3C956.5,-315.46 956.5,-225.09 956.5,-216.63"/>
</g>
<!-- h5&#45;&gt;HalimaKhatun -->
<g id="edge24" class="edge">
<title>h5&#45;&gt;HalimaKhatun</title>
<path fill="none" stroke="black" d="M1698.11,-325C1701.15,-325 1715.07,-325 1731.37,-325"/>
</g>
<!-- h5_2 -->
<g id="node67" class="node">
<title>h5_2</title>
<ellipse fill="none" stroke="black" cx="1697.5" cy="-216" rx="0.5" ry="0.5"/>
</g>
<!-- h5&#45;&gt;h5_2 -->
<g id="edge61" class="edge">
<title>h5&#45;&gt;h5_2</title>
<path fill="none" stroke="black" d="M1697.5,-324.3C1697.5,-315.46 1697.5,-225.09 1697.5,-216.63"/>
</g>
<!-- h7&#45;&gt;RubiAkter -->
<g id="edge27" class="edge">
<title>h7&#45;&gt;RubiAkter</title>
<path fill="none" stroke="black" d="M2153.23,-325C2155.43,-325 2162.4,-325 2170.97,-325"/>
</g>
<!-- h7_1 -->
<g id="node71" class="node">
<title>h7_1</title>
<ellipse fill="none" stroke="black" cx="2152.5" cy="-216" rx="0.5" ry="0.5"/>
</g>
<!-- h7&#45;&gt;h7_1 -->
<g id="edge66" class="edge">
<title>h7&#45;&gt;h7_1</title>
<path fill="none" stroke="black" d="M2152.5,-324.3C2152.5,-315.46 2152.5,-225.09 2152.5,-216.63"/>
</g>
<!-- h8&#45;&gt;MdHannan -->
<g id="edge29" class="edge">
<title>h8&#45;&gt;MdHannan</title>
<path fill="none" stroke="black" d="M2972.5,-269.99C2972.5,-264.99 2972.5,-225 2972.5,-225 2972.5,-225 2972.81,-225 2973.39,-225"/>
</g>
<!-- h8_1 -->
<g id="node54" class="node">
<title>h8_1</title>
<ellipse fill="none" stroke="black" cx="2935.5" cy="-216" rx="0.5" ry="0.5"/>
</g>
<!-- h8&#45;&gt;h8_1 -->
<g id="edge30" class="edge">
<title>h8&#45;&gt;h8_1</title>
<path fill="none" stroke="black" d="M2972.39,-270C2970.22,-270 2935.5,-270 2935.5,-270 2935.5,-270 2935.5,-222.54 2935.5,-216.61"/>
</g>
<!-- h8_1&#45;&gt;mahi_hannan -->
<g id="edge32" class="edge">
<title>h8_1&#45;&gt;mahi_hannan</title>
<path fill="none" stroke="black" d="M2935.46,-215C2931.69,-215 2690.5,-215 2690.5,-215 2690.5,-215 2690.5,-177 2690.5,-153.54"/>
</g>
<!-- h8_2 -->
<g id="node56" class="node">
<title>h8_2</title>
<ellipse fill="none" stroke="black" cx="2954.5" cy="-216" rx="0.5" ry="0.5"/>
</g>
<!-- h8_1&#45;&gt;h8_2 -->
<g id="edge51" class="edge">
<title>h8_1&#45;&gt;h8_2</title>
<path fill="none" stroke="black" d="M2936.32,-216C2939.5,-216 2951.03,-216 2953.87,-216"/>
</g>
<!-- h8_0 -->
<g id="node55" class="node">
<title>h8_0</title>
<ellipse fill="none" stroke="black" cx="2423.5" cy="-216" rx="0.5" ry="0.5"/>
</g>
<!-- h8_0&#45;&gt;jasim_hannan -->
<g id="edge31" class="edge">
<title>h8_0&#45;&gt;jasim_hannan</title>
<path fill="none" stroke="black" d="M2423.5,-215.49C2423.5,-210.85 2423.5,-175.95 2423.5,-153.81"/>
</g>
<!-- h8_0&#45;&gt;h8_1 -->
<g id="edge50" class="edge">
<title>h8_0&#45;&gt;h8_1</title>
<path fill="none" stroke="black" d="M2424.32,-216C2429.44,-216 2456.75,-216 2456.75,-216 2456.75,-216 2456.75,-206 2456.75,-206 2456.75,-206 2935.5,-206 2935.5,-206 2935.5,-206 2935.5,-212.6 2935.5,-215.08"/>
</g>
<!-- h8_2&#45;&gt;SarminAkter -->
<g id="edge33" class="edge">
<title>h8_2&#45;&gt;SarminAkter</title>
<path fill="none" stroke="black" d="M2954.5,-215.49C2954.5,-210.85 2954.5,-175.95 2954.5,-153.81"/>
</g>
<!-- h2_0 -->
<g id="node57" class="node">
<title>h2_0</title>
<ellipse fill="none" stroke="black" cx="59.5" cy="-216" rx="0.5" ry="0.5"/>
</g>
<!-- h2_0&#45;&gt;MdBakiMiazi -->
<g id="edge53" class="edge">
<title>h2_0&#45;&gt;MdBakiMiazi</title>
<path fill="none" stroke="black" d="M59.5,-215.49C59.5,-210.85 59.5,-175.95 59.5,-153.81"/>
</g>
<!-- h2_0&#45;&gt;h2_1 -->
<g id="edge34" class="edge">
<title>h2_0&#45;&gt;h2_1</title>
<path fill="none" stroke="black" d="M60.23,-216C71.6,-216 211.88,-216 222.82,-216"/>
</g>
<!-- h2_1&#45;&gt;MdSaifulIslamMiazi -->
<g id="edge54" class="edge">
<title>h2_1&#45;&gt;MdSaifulIslamMiazi</title>
<path fill="none" stroke="black" d="M223.5,-215.49C223.5,-210.91 223.5,-176.76 223.5,-154.58"/>
</g>
<!-- h2_2 -->
<g id="node59" class="node">
<title>h2_2</title>
<ellipse fill="none" stroke="black" cx="391.5" cy="-216" rx="0.5" ry="0.5"/>
</g>
<!-- h2_1&#45;&gt;h2_2 -->
<g id="edge35" class="edge">
<title>h2_1&#45;&gt;h2_2</title>
<path fill="none" stroke="black" d="M224.25,-216C235.9,-216 379.6,-216 390.81,-216"/>
</g>
<!-- h2_2&#45;&gt;MdZahirMiazi -->
<g id="edge55" class="edge">
<title>h2_2&#45;&gt;MdZahirMiazi</title>
<path fill="none" stroke="black" d="M391.5,-215.49C391.5,-210.85 391.5,-175.95 391.5,-153.81"/>
</g>
<!-- h3_0 -->
<g id="node60" class="node">
<title>h3_0</title>
<ellipse fill="none" stroke="black" cx="528.5" cy="-216" rx="0.5" ry="0.5"/>
</g>
<!-- h2_2&#45;&gt;h3_0 -->
<!-- h3_0&#45;&gt;ayuba_bazlur -->
<g id="edge57" class="edge">
<title>h3_0&#45;&gt;ayuba_bazlur</title>
<path fill="none" stroke="black" d="M528.5,-215.49C528.5,-210.91 528.5,-176.76 528.5,-154.58"/>
</g>
<!-- h3_1 -->
<g id="node61" class="node">
<title>h3_1</title>
<ellipse fill="none" stroke="black" cx="823.5" cy="-216" rx="0.5" ry="0.5"/>
</g>
<!-- h3_0&#45;&gt;h3_1 -->
<g id="edge37" class="edge">
<title>h3_0&#45;&gt;h3_1</title>
<path fill="none" stroke="black" d="M529.35,-216C546.11,-216 806.45,-216 822.71,-216"/>
</g>
<!-- h3_1&#45;&gt;MdAlAmin -->
<g id="edge58" class="edge">
<title>h3_1&#45;&gt;MdAlAmin</title>
<path fill="none" stroke="black" d="M823.5,-215.49C823.5,-211.42 823.5,-183.98 823.5,-162.36"/>
</g>
<!-- h3_1&#45;&gt;h3_2 -->
<g id="edge38" class="edge">
<title>h3_1&#45;&gt;h3_2</title>
<path fill="none" stroke="black" d="M824.35,-216C835.15,-216 945.41,-216 955.73,-216"/>
</g>
<!-- h3_3 -->
<g id="node63" class="node">
<title>h3_3</title>
<ellipse fill="none" stroke="black" cx="975.5" cy="-216" rx="0.5" ry="0.5"/>
</g>
<!-- h3_2&#45;&gt;h3_3 -->
<g id="edge39" class="edge">
<title>h3_2&#45;&gt;h3_3</title>
<path fill="none" stroke="black" d="M957.32,-216C960.5,-216 972.03,-216 974.87,-216"/>
</g>
<!-- h3_3&#45;&gt;NowshinLaylaArju -->
<g id="edge59" class="edge">
<title>h3_3&#45;&gt;NowshinLaylaArju</title>
<path fill="none" stroke="black" d="M975.5,-215.49C975.5,-210.91 975.5,-176.76 975.5,-154.58"/>
</g>
<!-- h3_4 -->
<g id="node64" class="node">
<title>h3_4</title>
<ellipse fill="none" stroke="black" cx="1154.5" cy="-216" rx="0.5" ry="0.5"/>
</g>
<!-- h3_3&#45;&gt;h3_4 -->
<g id="edge40" class="edge">
<title>h3_3&#45;&gt;h3_4</title>
<path fill="none" stroke="black" d="M976.01,-216C986.1,-216 1141.62,-216 1153.75,-216"/>
</g>
<!-- h3_4&#45;&gt;MahdiHasnatSiyam -->
<g id="edge60" class="edge">
<title>h3_4&#45;&gt;MahdiHasnatSiyam</title>
<path fill="none" stroke="black" d="M1154.5,-215.49C1154.5,-210.91 1154.5,-176.76 1154.5,-154.58"/>
</g>
<!-- h5_0 -->
<g id="node65" class="node">
<title>h5_0</title>
<ellipse fill="none" stroke="black" cx="1312.5" cy="-216" rx="0.5" ry="0.5"/>
</g>
<!-- h3_4&#45;&gt;h5_0 -->
<!-- h5_0&#45;&gt;rehena_ataur -->
<g id="edge62" class="edge">
<title>h5_0&#45;&gt;rehena_ataur</title>
<path fill="none" stroke="black" d="M1312.5,-215.49C1312.5,-210.85 1312.5,-175.95 1312.5,-153.81"/>
</g>
<!-- h5_1 -->
<g id="node66" class="node">
<title>h5_1</title>
<ellipse fill="none" stroke="black" cx="1647.5" cy="-216" rx="0.5" ry="0.5"/>
</g>
<!-- h5_0&#45;&gt;h5_1 -->
<g id="edge42" class="edge">
<title>h5_0&#45;&gt;h5_1</title>
<path fill="none" stroke="black" d="M1313.04,-216C1327.67,-216 1632.69,-216 1646.98,-216"/>
</g>
<!-- h5_1&#45;&gt;MdRayhanIslamMiazi -->
<g id="edge63" class="edge">
<title>h5_1&#45;&gt;MdRayhanIslamMiazi</title>
<path fill="none" stroke="black" d="M1647.5,-215.49C1647.5,-210.91 1647.5,-176.76 1647.5,-154.58"/>
</g>
<!-- h5_1&#45;&gt;h5_2 -->
<g id="edge43" class="edge">
<title>h5_1&#45;&gt;h5_2</title>
<path fill="none" stroke="black" d="M1648.06,-216C1653.13,-216 1690.87,-216 1696.73,-216"/>
</g>
<!-- h5_3 -->
<g id="node68" class="node">
<title>h5_3</title>
<ellipse fill="none" stroke="black" cx="1823.5" cy="-216" rx="0.5" ry="0.5"/>
</g>
<!-- h5_2&#45;&gt;h5_3 -->
<g id="edge44" class="edge">
<title>h5_2&#45;&gt;h5_3</title>
<path fill="none" stroke="black" d="M1698.3,-216C1708.53,-216 1813,-216 1822.77,-216"/>
</g>
<!-- h5_3&#45;&gt;MdHabibMiazi -->
<g id="edge64" class="edge">
<title>h5_3&#45;&gt;MdHabibMiazi</title>
<path fill="none" stroke="black" d="M1823.5,-215.49C1823.5,-210.85 1823.5,-175.95 1823.5,-153.81"/>
</g>
<!-- h5_4 -->
<g id="node69" class="node">
<title>h5_4</title>
<ellipse fill="none" stroke="black" cx="1972.5" cy="-216" rx="0.5" ry="0.5"/>
</g>
<!-- h5_3&#45;&gt;h5_4 -->
<g id="edge45" class="edge">
<title>h5_3&#45;&gt;h5_4</title>
<path fill="none" stroke="black" d="M1824.16,-216C1834.41,-216 1959.88,-216 1971.62,-216"/>
</g>
<!-- h5_4&#45;&gt;MdSayedMiazi -->
<g id="edge65" class="edge">
<title>h5_4&#45;&gt;MdSayedMiazi</title>
<path fill="none" stroke="black" d="M1972.5,-215.49C1972.5,-210.91 1972.5,-176.76 1972.5,-154.58"/>
</g>
<!-- h7_0 -->
<g id="node70" class="node">
<title>h7_0</title>
<ellipse fill="none" stroke="black" cx="2133.5" cy="-216" rx="0.5" ry="0.5"/>
</g>
<!-- h5_4&#45;&gt;h7_0 -->
<!-- h7_0&#45;&gt;RakibulHasanRiaz -->
<g id="edge67" class="edge">
<title>h7_0&#45;&gt;RakibulHasanRiaz</title>
<path fill="none" stroke="black" d="M2133.5,-215.49C2133.5,-210.85 2133.5,-175.95 2133.5,-153.81"/>
</g>
<!-- h7_0&#45;&gt;h7_1 -->
<g id="edge47" class="edge">
<title>h7_0&#45;&gt;h7_1</title>
<path fill="none" stroke="black" d="M2134.32,-216C2137.5,-216 2149.03,-216 2151.87,-216"/>
</g>
<!-- h7_2 -->
<g id="node72" class="node">
<title>h7_2</title>
<ellipse fill="none" stroke="black" cx="2284.5" cy="-216" rx="0.5" ry="0.5"/>
</g>
<!-- h7_1&#45;&gt;h7_2 -->
<g id="edge48" class="edge">
<title>h7_1&#45;&gt;h7_2</title>
<path fill="none" stroke="black" d="M2153.34,-216C2164.06,-216 2273.5,-216 2283.73,-216"/>
</g>
<!-- h7_2&#45;&gt;JerinSultana -->
<g id="edge68" class="edge">
<title>h7_2&#45;&gt;JerinSultana</title>
<path fill="none" stroke="black" d="M2284.5,-215.49C2284.5,-210.85 2284.5,-175.95 2284.5,-153.81"/>
</g>
<!-- h7_2&#45;&gt;h8_0 -->
<!-- h4&#45;&gt;MdJalalSarker -->
<g id="edge73" class="edge">
<title>h4&#45;&gt;MdJalalSarker</title>
<path fill="none" stroke="black" d="M602.56,-135C603.31,-135 610.92,-135 621.26,-135"/>
</g>
<!-- h4_1 -->
<g id="node78" class="node">
<title>h4_1</title>
<ellipse fill="none" stroke="black" cx="602.5" cy="-72.5" rx="0.5" ry="0.5"/>
</g>
<!-- h4&#45;&gt;h4_1 -->
<g id="edge98" class="edge">
<title>h4&#45;&gt;h4_1</title>
<path fill="none" stroke="black" d="M602.5,-134.79C602.5,-128.3 602.5,-79.23 602.5,-73.12"/>
</g>
<!-- h6&#45;&gt;MdOmorFaruk -->
<g id="edge79" class="edge">
<title>h6&#45;&gt;MdOmorFaruk</title>
<path fill="none" stroke="black" d="M1387.56,-135C1388.32,-135 1396.02,-135 1406.48,-135"/>
</g>
<!-- h6_1 -->
<g id="node81" class="node">
<title>h6_1</title>
<ellipse fill="none" stroke="black" cx="1341.5" cy="-72.5" rx="0.5" ry="0.5"/>
</g>
<!-- h6&#45;&gt;h6_1 -->
<g id="edge101" class="edge">
<title>h6&#45;&gt;h6_1</title>
<path fill="none" stroke="black" d="M1387.5,-134.79C1387.5,-127.81 1387.5,-72 1387.5,-72 1387.5,-72 1344.33,-72 1341.63,-72"/>
</g>
<!-- h9&#45;&gt;ArinSultana -->
<g id="edge87" class="edge">
<title>h9&#45;&gt;ArinSultana</title>
<path fill="none" stroke="black" d="M2507.55,-135C2508.26,-135 2516.07,-135 2526.31,-135"/>
</g>
<!-- h9_0 -->
<g id="node83" class="node">
<title>h9_0</title>
<ellipse fill="none" stroke="black" cx="1577.5" cy="-72.5" rx="0.5" ry="0.5"/>
</g>
<!-- h9&#45;&gt;h9_0 -->
<g id="edge105" class="edge">
<title>h9&#45;&gt;h9_0</title>
<path fill="none" stroke="black" d="M2507.5,-134.79C2507.5,-127.81 2507.5,-72 2507.5,-72 2507.5,-72 1584.75,-72 1577.54,-72"/>
</g>
<!-- h10&#45;&gt;SaymaZafori -->
<g id="edge90" class="edge">
<title>h10&#45;&gt;SaymaZafori</title>
<path fill="none" stroke="black" d="M2749.55,-135C2750.27,-135 2758.04,-135 2768.32,-135"/>
</g>
<!-- h4_0 -->
<g id="node77" class="node">
<title>h4_0</title>
<ellipse fill="none" stroke="black" cx="583.5" cy="-72.5" rx="0.5" ry="0.5"/>
</g>
<!-- h4_0&#45;&gt;RishadRahbarMahin -->
<g id="edge99" class="edge">
<title>h4_0&#45;&gt;RishadRahbarMahin</title>
<path fill="none" stroke="black" d="M583.5,-71.89C583.5,-68.38 583.5,-50.48 583.5,-36.26"/>
</g>
<!-- h4_0&#45;&gt;h4_1 -->
<g id="edge92" class="edge">
<title>h4_0&#45;&gt;h4_1</title>
<path fill="none" stroke="black" d="M583.55,-72C584.63,-72 601.4,-72 602.45,-72"/>
</g>
<!-- h4_2 -->
<g id="node79" class="node">
<title>h4_2</title>
<ellipse fill="none" stroke="black" cx="939.5" cy="-72.5" rx="0.5" ry="0.5"/>
</g>
<!-- h4_1&#45;&gt;h4_2 -->
<g id="edge93" class="edge">
<title>h4_1&#45;&gt;h4_2</title>
<path fill="none" stroke="black" d="M602.56,-72C607.7,-72 934.34,-72 939.44,-72"/>
</g>
<!-- h4_2&#45;&gt;SidratulMuntaha -->
<g id="edge100" class="edge">
<title>h4_2&#45;&gt;SidratulMuntaha</title>
<path fill="none" stroke="black" d="M939.5,-71.89C939.5,-68.38 939.5,-50.48 939.5,-36.26"/>
</g>
<!-- h6_0 -->
<g id="node80" class="node">
<title>h6_0</title>
<ellipse fill="none" stroke="black" cx="1173.5" cy="-72.5" rx="0.5" ry="0.5"/>
</g>
<!-- h4_2&#45;&gt;h6_0 -->
<!-- h6_0&#45;&gt;MdZunayed -->
<g id="edge102" class="edge">
<title>h6_0&#45;&gt;MdZunayed</title>
<path fill="none" stroke="black" d="M1173.5,-71.89C1173.5,-68.38 1173.5,-50.48 1173.5,-36.26"/>
</g>
<!-- h6_0&#45;&gt;h6_1 -->
<g id="edge95" class="edge">
<title>h6_0&#45;&gt;h6_1</title>
<path fill="none" stroke="black" d="M1173.62,-72C1178.63,-72 1336.45,-72 1341.38,-72"/>
</g>
<!-- h6_1&#45;&gt;MdZobayer -->
<g id="edge103" class="edge">
<title>h6_1&#45;&gt;MdZobayer</title>
<path fill="none" stroke="black" d="M1341.5,-71.89C1341.5,-68.38 1341.5,-50.48 1341.5,-36.26"/>
</g>
<!-- h6_2 -->
<g id="node82" class="node">
<title>h6_2</title>
<ellipse fill="none" stroke="black" cx="1450.5" cy="-72.5" rx="0.5" ry="0.5"/>
</g>
<!-- h6_1&#45;&gt;h6_2 -->
<g id="edge96" class="edge">
<title>h6_1&#45;&gt;h6_2</title>
<path fill="none" stroke="black" d="M1341.5,-73.29C1341.5,-76.84 1341.5,-91 1341.5,-91 1341.5,-91 1450.5,-91 1450.5,-91 1450.5,-91 1450.5,-76.84 1450.5,-73.29"/>
</g>
<!-- h6_2&#45;&gt;Sumaiya -->
<g id="edge104" class="edge">
<title>h6_2&#45;&gt;Sumaiya</title>
<path fill="none" stroke="black" d="M1450.5,-71.89C1450.5,-68.38 1450.5,-50.48 1450.5,-36.26"/>
</g>
<!-- h6_2&#45;&gt;h9_0 -->
<!-- h9_0&#45;&gt;AnishaMehzabin -->
<g id="edge106" class="edge">
<title>h9_0&#45;&gt;AnishaMehzabin</title>
<path fill="none" stroke="black" d="M1577.5,-71.89C1577.5,-68.38 1577.5,-50.48 1577.5,-36.26"/>
</g>
</g>
</svg>
