<?xml version="1.0" encoding="UTF-8" standalone="no"?>
<!DOCTYPE svg PUBLIC "-//W3C//DTD SVG 1.1//EN"
 "http://www.w3.org/Graphics/SVG/1.1/DTD/svg11.dtd">
<!-- Generated by graphviz version 2.43.0 (0)
 -->
<!-- Title: %3 Pages: 1 -->
<svg width="2869pt" height="497pt"
 viewBox="0.00 0.00 2868.50 497.00" xmlns="http://www.w3.org/2000/svg" xmlns:xlink="http://www.w3.org/1999/xlink">
<g id="graph0" class="graph" transform="scale(1 1) rotate(0) translate(4 493)">
<title>%3</title>
<polygon fill="white" stroke="transparent" points="-4,4 -4,-493 2864.5,-493 2864.5,4 -4,4"/>
<!-- hamid_hanif -->
<g id="node1" class="node">
<title>hamid_hanif</title>
<polygon fill="#e0eeee" stroke="black" points="1416,-489 1235,-489 1235,-453 1416,-453 1416,-489"/>
<text text-anchor="middle" x="1325.5" y="-467.3" font-family="Times,serif" font-size="14.00">Md Abdul Hamid Miazi</text>
</g>
<!-- h0 -->
<g id="node40" class="node">
<title>h0</title>
<ellipse fill="none" stroke="black" cx="1434.5" cy="-471" rx="0.5" ry="0.5"/>
</g>
<!-- hamid_hanif&#45;&gt;h0 -->
<g id="edge1" class="edge">
<title>hamid_hanif&#45;&gt;h0</title>
<path fill="none" stroke="black" d="M1416.19,-471C1422.1,-471 1428.02,-471 1433.93,-471"/>
</g>
<!-- Unknown -->
<g id="node2" class="node">
<title>Unknown</title>
<polygon fill="bisque" stroke="black" points="1536.5,-489 1452.5,-489 1452.5,-453 1536.5,-453 1536.5,-489"/>
<text text-anchor="middle" x="1494.5" y="-467.3" font-family="Times,serif" font-size="14.00">Unknown</text>
</g>
<!-- kaiyum_hamid -->
<g id="node3" class="node">
<title>kaiyum_hamid</title>
<polygon fill="#e0eeee" stroke="black" points="1528.5,-380 1340.5,-380 1340.5,-344 1528.5,-344 1528.5,-380"/>
<text text-anchor="middle" x="1434.5" y="-358.3" font-family="Times,serif" font-size="14.00">Md Abdul Kaiyum Miazi</text>
</g>
<!-- h1 -->
<g id="node42" class="node">
<title>h1</title>
<ellipse fill="none" stroke="black" cx="1547.5" cy="-362" rx="0.5" ry="0.5"/>
</g>
<!-- kaiyum_hamid&#45;&gt;h1 -->
<g id="edge5" class="edge">
<title>kaiyum_hamid&#45;&gt;h1</title>
<path fill="none" stroke="black" d="M1528.52,-362C1534.65,-362 1540.78,-362 1546.91,-362"/>
</g>
<!-- AmbiaKhatun -->
<g id="node4" class="node">
<title>AmbiaKhatun</title>
<polygon fill="bisque" stroke="black" points="1684.5,-380 1566.5,-380 1566.5,-344 1684.5,-344 1684.5,-380"/>
<text text-anchor="middle" x="1625.5" y="-358.3" font-family="Times,serif" font-size="14.00">Ambia Khatun</text>
</g>
<!-- fazlur_kaiyum -->
<g id="node5" class="node">
<title>fazlur_kaiyum</title>
<polygon fill="#e0eeee" stroke="black" points="717,-271 534,-271 534,-235 717,-235 717,-271"/>
<text text-anchor="middle" x="625.5" y="-249.3" font-family="Times,serif" font-size="14.00">Md Fazlur Rahim Miazi</text>
</g>
<!-- h2 -->
<g id="node48" class="node">
<title>h2</title>
<ellipse fill="none" stroke="black" cx="735.5" cy="-253" rx="0.5" ry="0.5"/>
</g>
<!-- fazlur_kaiyum&#45;&gt;h2 -->
<g id="edge17" class="edge">
<title>fazlur_kaiyum&#45;&gt;h2</title>
<path fill="none" stroke="black" d="M717.02,-253C722.99,-253 728.96,-253 734.92,-253"/>
</g>
<!-- bazlur_kaiyum -->
<g id="node6" class="node">
<title>bazlur_kaiyum</title>
<polygon fill="#e0eeee" stroke="black" points="1054,-271 869,-271 869,-235 1054,-235 1054,-271"/>
<text text-anchor="middle" x="961.5" y="-249.3" font-family="Times,serif" font-size="14.00">Md Bazlur Rahim Miazi</text>
</g>
<!-- h3 -->
<g id="node49" class="node">
<title>h3</title>
<ellipse fill="none" stroke="black" cx="1072.5" cy="-253" rx="0.5" ry="0.5"/>
</g>
<!-- bazlur_kaiyum&#45;&gt;h3 -->
<g id="edge20" class="edge">
<title>bazlur_kaiyum&#45;&gt;h3</title>
<path fill="none" stroke="black" d="M1054.29,-253C1060.17,-253 1066.05,-253 1071.93,-253"/>
</g>
<!-- ataur_kaiyum -->
<g id="node7" class="node">
<title>ataur_kaiyum</title>
<polygon fill="#e0eeee" stroke="black" points="1643,-271 1452,-271 1452,-235 1643,-235 1643,-271"/>
<text text-anchor="middle" x="1547.5" y="-249.3" font-family="Times,serif" font-size="14.00">Md Ataur Rahman Miazi</text>
</g>
<!-- h5 -->
<g id="node50" class="node">
<title>h5</title>
<ellipse fill="none" stroke="black" cx="1697.5" cy="-253" rx="0.5" ry="0.5"/>
</g>
<!-- ataur_kaiyum&#45;&gt;h5 -->
<g id="edge23" class="edge">
<title>ataur_kaiyum&#45;&gt;h5</title>
<path fill="none" stroke="black" d="M1643.01,-253C1660.89,-253 1678.77,-253 1696.65,-253"/>
</g>
<!-- zakir_kaiyum -->
<g id="node8" class="node">
<title>zakir_kaiyum</title>
<polygon fill="#e0eeee" stroke="black" points="2063.5,-271 1881.5,-271 1881.5,-235 2063.5,-235 2063.5,-271"/>
<text text-anchor="middle" x="1972.5" y="-249.3" font-family="Times,serif" font-size="14.00">Md Zakir Hossen Miazi</text>
</g>
<!-- h7 -->
<g id="node51" class="node">
<title>h7</title>
<ellipse fill="none" stroke="black" cx="2086.5" cy="-253" rx="0.5" ry="0.5"/>
</g>
<!-- zakir_kaiyum&#45;&gt;h7 -->
<g id="edge26" class="edge">
<title>zakir_kaiyum&#45;&gt;h7</title>
<path fill="none" stroke="black" d="M2063.79,-253C2071.12,-253 2078.46,-253 2085.79,-253"/>
</g>
<!-- jamila_kaiyum -->
<g id="node9" class="node">
<title>jamila_kaiyum</title>
<polygon fill="bisque" stroke="black" points="2333,-271 2216,-271 2216,-235 2333,-235 2333,-271"/>
<text text-anchor="middle" x="2274.5" y="-249.3" font-family="Times,serif" font-size="14.00">Jamila Khatun</text>
</g>
<!-- h8 -->
<g id="node52" class="node">
<title>h8</title>
<ellipse fill="none" stroke="black" cx="2458.5" cy="-253" rx="0.5" ry="0.5"/>
</g>
<!-- jamila_kaiyum&#45;&gt;h8 -->
<g id="edge29" class="edge">
<title>jamila_kaiyum&#45;&gt;h8</title>
<path fill="none" stroke="black" d="M2333.08,-253C2374.56,-253 2416.04,-253 2457.52,-253"/>
</g>
<!-- SufiaAkter -->
<g id="node10" class="node">
<title>SufiaAkter</title>
<polygon fill="bisque" stroke="black" points="850.5,-271 754.5,-271 754.5,-235 850.5,-235 850.5,-271"/>
<text text-anchor="middle" x="802.5" y="-249.3" font-family="Times,serif" font-size="14.00">Sufia Akter</text>
</g>
<!-- SufiaAkter&#45;&gt;bazlur_kaiyum -->
<!-- MdBakiMiazi -->
<g id="node11" class="node">
<title>MdBakiMiazi</title>
<polygon fill="#e0eeee" stroke="black" points="119,-153.5 0,-153.5 0,-117.5 119,-117.5 119,-153.5"/>
<text text-anchor="middle" x="59.5" y="-131.8" font-family="Times,serif" font-size="14.00">Md Baki Miazi</text>
</g>
<!-- MdSaifulIslamMiazi -->
<g id="node12" class="node">
<title>MdSaifulIslamMiazi</title>
<polygon fill="#e0eeee" stroke="black" points="310,-154.5 137,-154.5 137,-116.5 310,-116.5 310,-154.5"/>
<text text-anchor="middle" x="223.5" y="-139.3" font-family="Times,serif" font-size="14.00">Md Saiful Islam Miazi</text>
<text text-anchor="middle" x="223.5" y="-124.3" font-family="Times,serif" font-size="14.00">« Nurul»</text>
</g>
<!-- MdBakiMiazi&#45;&gt;MdSaifulIslamMiazi -->
<!-- MdZahirMiazi -->
<g id="node13" class="node">
<title>MdZahirMiazi</title>
<polygon fill="#e0eeee" stroke="black" points="454.5,-153.5 328.5,-153.5 328.5,-117.5 454.5,-117.5 454.5,-153.5"/>
<text text-anchor="middle" x="391.5" y="-131.8" font-family="Times,serif" font-size="14.00">Md Zahir Miazi</text>
</g>
<!-- MdSaifulIslamMiazi&#45;&gt;MdZahirMiazi -->
<!-- ayuba_bazlur -->
<g id="node15" class="node">
<title>ayuba_bazlur</title>
<polygon fill="bisque" stroke="black" points="584,-154.5 473,-154.5 473,-116.5 584,-116.5 584,-154.5"/>
<text text-anchor="middle" x="528.5" y="-139.3" font-family="Times,serif" font-size="14.00">Ayuba Ansari</text>
<text text-anchor="middle" x="528.5" y="-124.3" font-family="Times,serif" font-size="14.00">« Maksuda»</text>
</g>
<!-- MdZahirMiazi&#45;&gt;ayuba_bazlur -->
<!-- ShahnazPervin -->
<g id="node14" class="node">
<title>ShahnazPervin</title>
<polygon fill="bisque" stroke="black" points="1362.5,-271 1234.5,-271 1234.5,-235 1362.5,-235 1362.5,-271"/>
<text text-anchor="middle" x="1298.5" y="-249.3" font-family="Times,serif" font-size="14.00">Shahnaz Pervin</text>
</g>
<!-- ShahnazPervin&#45;&gt;ataur_kaiyum -->
<!-- h4 -->
<g id="node72" class="node">
<title>h4</title>
<ellipse fill="none" stroke="black" cx="602.5" cy="-135.5" rx="0.5" ry="0.5"/>
</g>
<!-- ayuba_bazlur&#45;&gt;h4 -->
<g id="edge73" class="edge">
<title>ayuba_bazlur&#45;&gt;h4</title>
<path fill="none" stroke="black" d="M584,-135.5C589.97,-135.5 595.95,-135.5 601.92,-135.5"/>
</g>
<!-- MdAlAmin -->
<g id="node16" class="node">
<title>MdAlAmin</title>
<polygon fill="#e0eeee" stroke="black" points="879.5,-162 767.5,-162 767.5,-109 879.5,-109 879.5,-162"/>
<text text-anchor="middle" x="823.5" y="-146.8" font-family="Times,serif" font-size="14.00">Md Al Amin</text>
<text text-anchor="middle" x="823.5" y="-131.8" font-family="Times,serif" font-size="14.00">« Mozammil»</text>
<text text-anchor="middle" x="823.5" y="-116.8" font-family="Times,serif" font-size="14.00">1992</text>
</g>
<!-- NowshinLaylaArju -->
<g id="node17" class="node">
<title>NowshinLaylaArju</title>
<polygon fill="bisque" stroke="black" points="1053.5,-154.5 897.5,-154.5 897.5,-116.5 1053.5,-116.5 1053.5,-154.5"/>
<text text-anchor="middle" x="975.5" y="-139.3" font-family="Times,serif" font-size="14.00">Nowshin Layla Arju</text>
<text text-anchor="middle" x="975.5" y="-124.3" font-family="Times,serif" font-size="14.00">1997</text>
</g>
<!-- MdAlAmin&#45;&gt;NowshinLaylaArju -->
<!-- MahdiHasnatSiyam -->
<g id="node18" class="node">
<title>MahdiHasnatSiyam</title>
<polygon fill="#e0eeee" stroke="black" points="1237.5,-154.5 1071.5,-154.5 1071.5,-116.5 1237.5,-116.5 1237.5,-154.5"/>
<text text-anchor="middle" x="1154.5" y="-139.3" font-family="Times,serif" font-size="14.00">Mahdi Hasnat Siyam</text>
<text text-anchor="middle" x="1154.5" y="-124.3" font-family="Times,serif" font-size="14.00">1999</text>
</g>
<!-- NowshinLaylaArju&#45;&gt;MahdiHasnatSiyam -->
<!-- rehena_ataur -->
<g id="node23" class="node">
<title>rehena_ataur</title>
<polygon fill="bisque" stroke="black" points="1369,-153.5 1256,-153.5 1256,-117.5 1369,-117.5 1369,-153.5"/>
<text text-anchor="middle" x="1312.5" y="-131.8" font-family="Times,serif" font-size="14.00">Rehena Akter</text>
</g>
<!-- MahdiHasnatSiyam&#45;&gt;rehena_ataur -->
<!-- MdJalalSarker -->
<g id="node19" class="node">
<title>MdJalalSarker</title>
<polygon fill="#e0eeee" stroke="black" points="749.5,-153.5 621.5,-153.5 621.5,-117.5 749.5,-117.5 749.5,-153.5"/>
<text text-anchor="middle" x="685.5" y="-131.8" font-family="Times,serif" font-size="14.00">Md Jalal Sarker</text>
</g>
<!-- MdJalalSarker&#45;&gt;MdAlAmin -->
<!-- RishadRahbarMahin -->
<g id="node20" class="node">
<title>RishadRahbarMahin</title>
<polygon fill="#e0eeee" stroke="black" points="1032,-36 861,-36 861,0 1032,0 1032,-36"/>
<text text-anchor="middle" x="946.5" y="-14.3" font-family="Times,serif" font-size="14.00">Rishad Rahbar Mahin</text>
</g>
<!-- SidratulMuntaha -->
<g id="node21" class="node">
<title>SidratulMuntaha</title>
<polygon fill="bisque" stroke="black" points="1193,-36 1050,-36 1050,0 1193,0 1193,-36"/>
<text text-anchor="middle" x="1121.5" y="-14.3" font-family="Times,serif" font-size="14.00">Sidratul Muntaha</text>
</g>
<!-- RishadRahbarMahin&#45;&gt;SidratulMuntaha -->
<!-- MdZunayed -->
<g id="node28" class="node">
<title>MdZunayed</title>
<polygon fill="#e0eeee" stroke="black" points="1317.5,-36 1211.5,-36 1211.5,0 1317.5,0 1317.5,-36"/>
<text text-anchor="middle" x="1264.5" y="-14.3" font-family="Times,serif" font-size="14.00">Md Zunayed</text>
</g>
<!-- SidratulMuntaha&#45;&gt;MdZunayed -->
<!-- HalimaKhatun -->
<g id="node22" class="node">
<title>HalimaKhatun</title>
<polygon fill="bisque" stroke="black" points="1855.5,-271 1731.5,-271 1731.5,-235 1855.5,-235 1855.5,-271"/>
<text text-anchor="middle" x="1793.5" y="-249.3" font-family="Times,serif" font-size="14.00">Halima Khatun</text>
</g>
<!-- HalimaKhatun&#45;&gt;zakir_kaiyum -->
<!-- h6 -->
<g id="node73" class="node">
<title>h6</title>
<ellipse fill="none" stroke="black" cx="1387.5" cy="-135.5" rx="0.5" ry="0.5"/>
</g>
<!-- rehena_ataur&#45;&gt;h6 -->
<g id="edge79" class="edge">
<title>rehena_ataur&#45;&gt;h6</title>
<path fill="none" stroke="black" d="M1369.04,-135.5C1375,-135.5 1380.96,-135.5 1386.92,-135.5"/>
</g>
<!-- MdRayhanIslamMiazi -->
<g id="node24" class="node">
<title>MdRayhanIslamMiazi</title>
<polygon fill="#e0eeee" stroke="black" points="1740,-154.5 1555,-154.5 1555,-116.5 1740,-116.5 1740,-154.5"/>
<text text-anchor="middle" x="1647.5" y="-139.3" font-family="Times,serif" font-size="14.00">Md Rayhan Islam Miazi</text>
<text text-anchor="middle" x="1647.5" y="-124.3" font-family="Times,serif" font-size="14.00">1996</text>
</g>
<!-- MdHabibMiazi -->
<g id="node25" class="node">
<title>MdHabibMiazi</title>
<polygon fill="#e0eeee" stroke="black" points="1889,-153.5 1758,-153.5 1758,-117.5 1889,-117.5 1889,-153.5"/>
<text text-anchor="middle" x="1823.5" y="-131.8" font-family="Times,serif" font-size="14.00">Md Habib Miazi</text>
</g>
<!-- MdRayhanIslamMiazi&#45;&gt;MdHabibMiazi -->
<!-- MdSayedMiazi -->
<g id="node26" class="node">
<title>MdSayedMiazi</title>
<polygon fill="#e0eeee" stroke="black" points="2038,-154.5 1907,-154.5 1907,-116.5 2038,-116.5 2038,-154.5"/>
<text text-anchor="middle" x="1972.5" y="-139.3" font-family="Times,serif" font-size="14.00">Md Sayed Miazi</text>
<text text-anchor="middle" x="1972.5" y="-124.3" font-family="Times,serif" font-size="14.00">2004</text>
</g>
<!-- MdHabibMiazi&#45;&gt;MdSayedMiazi -->
<!-- RakibulHasanRiaz -->
<g id="node32" class="node">
<title>RakibulHasanRiaz</title>
<polygon fill="#e0eeee" stroke="black" points="2211,-153.5 2056,-153.5 2056,-117.5 2211,-117.5 2211,-153.5"/>
<text text-anchor="middle" x="2133.5" y="-131.8" font-family="Times,serif" font-size="14.00">Rakibul Hasan Riaz</text>
</g>
<!-- MdSayedMiazi&#45;&gt;RakibulHasanRiaz -->
<!-- MdOmorFaruk -->
<g id="node27" class="node">
<title>MdOmorFaruk</title>
<polygon fill="#e0eeee" stroke="black" points="1536.5,-154.5 1406.5,-154.5 1406.5,-116.5 1536.5,-116.5 1536.5,-154.5"/>
<text text-anchor="middle" x="1471.5" y="-139.3" font-family="Times,serif" font-size="14.00">Md Omor Faruk</text>
<text text-anchor="middle" x="1471.5" y="-124.3" font-family="Times,serif" font-size="14.00">« Bokul»</text>
</g>
<!-- MdOmorFaruk&#45;&gt;MdRayhanIslamMiazi -->
<!-- MdZobayer -->
<g id="node29" class="node">
<title>MdZobayer</title>
<polygon fill="#e0eeee" stroke="black" points="1439,-36 1336,-36 1336,0 1439,0 1439,-36"/>
<text text-anchor="middle" x="1387.5" y="-14.3" font-family="Times,serif" font-size="14.00">Md Zobayer</text>
</g>
<!-- MdZunayed&#45;&gt;MdZobayer -->
<!-- Sumaiya -->
<g id="node30" class="node">
<title>Sumaiya</title>
<polygon fill="bisque" stroke="black" points="1535.5,-36 1457.5,-36 1457.5,0 1535.5,0 1535.5,-36"/>
<text text-anchor="middle" x="1496.5" y="-14.3" font-family="Times,serif" font-size="14.00">Sumaiya</text>
</g>
<!-- MdZobayer&#45;&gt;Sumaiya -->
<!-- AnishaMehzabin -->
<g id="node39" class="node">
<title>AnishaMehzabin</title>
<polygon fill="bisque" stroke="black" points="1693,-36 1554,-36 1554,0 1693,0 1693,-36"/>
<text text-anchor="middle" x="1623.5" y="-14.3" font-family="Times,serif" font-size="14.00">Anisha Mehzabin</text>
</g>
<!-- Sumaiya&#45;&gt;AnishaMehzabin -->
<!-- RubiAkter -->
<g id="node31" class="node">
<title>RubiAkter</title>
<polygon fill="bisque" stroke="black" points="2198,-271 2105,-271 2105,-235 2198,-235 2198,-271"/>
<text text-anchor="middle" x="2151.5" y="-249.3" font-family="Times,serif" font-size="14.00">Rubi Akter</text>
</g>
<!-- RubiAkter&#45;&gt;jamila_kaiyum -->
<!-- JerinSultana -->
<g id="node33" class="node">
<title>JerinSultana</title>
<polygon fill="bisque" stroke="black" points="2339.5,-153.5 2229.5,-153.5 2229.5,-117.5 2339.5,-117.5 2339.5,-153.5"/>
<text text-anchor="middle" x="2284.5" y="-131.8" font-family="Times,serif" font-size="14.00">Jerin Sultana</text>
</g>
<!-- RakibulHasanRiaz&#45;&gt;JerinSultana -->
<!-- jasim_hannan -->
<g id="node35" class="node">
<title>jasim_hannan</title>
<polygon fill="#e0eeee" stroke="black" points="2489,-153.5 2358,-153.5 2358,-117.5 2489,-117.5 2489,-153.5"/>
<text text-anchor="middle" x="2423.5" y="-131.8" font-family="Times,serif" font-size="14.00">Md Jasim Uddin</text>
</g>
<!-- JerinSultana&#45;&gt;jasim_hannan -->
<!-- MdHannan -->
<g id="node34" class="node">
<title>MdHannan</title>
<polygon fill="white" stroke="black" points="2577.5,-271 2477.5,-271 2477.5,-235 2577.5,-235 2577.5,-271"/>
<text text-anchor="middle" x="2527.5" y="-249.3" font-family="Times,serif" font-size="14.00">Md Hannan</text>
</g>
<!-- h9 -->
<g id="node74" class="node">
<title>h9</title>
<ellipse fill="none" stroke="black" cx="2507.5" cy="-135.5" rx="0.5" ry="0.5"/>
</g>
<!-- jasim_hannan&#45;&gt;h9 -->
<g id="edge87" class="edge">
<title>jasim_hannan&#45;&gt;h9</title>
<path fill="none" stroke="black" d="M2489.12,-135.5C2495.06,-135.5 2500.99,-135.5 2506.93,-135.5"/>
</g>
<!-- MdMahi -->
<g id="node36" class="node">
<title>MdMahi</title>
<polygon fill="#e0eeee" stroke="black" points="2730.5,-153.5 2650.5,-153.5 2650.5,-117.5 2730.5,-117.5 2730.5,-153.5"/>
<text text-anchor="middle" x="2690.5" y="-131.8" font-family="Times,serif" font-size="14.00">Md Mahi</text>
</g>
<!-- SarminAkter -->
<g id="node37" class="node">
<title>SarminAkter</title>
<polygon fill="bisque" stroke="black" points="2860.5,-153.5 2748.5,-153.5 2748.5,-117.5 2860.5,-117.5 2860.5,-153.5"/>
<text text-anchor="middle" x="2804.5" y="-131.8" font-family="Times,serif" font-size="14.00">Sarmin Akter</text>
</g>
<!-- MdMahi&#45;&gt;SarminAkter -->
<!-- ArinSultana -->
<g id="node38" class="node">
<title>ArinSultana</title>
<polygon fill="bisque" stroke="black" points="2632.5,-153.5 2526.5,-153.5 2526.5,-117.5 2632.5,-117.5 2632.5,-153.5"/>
<text text-anchor="middle" x="2579.5" y="-131.8" font-family="Times,serif" font-size="14.00">Arin Sultana</text>
</g>
<!-- ArinSultana&#45;&gt;MdMahi -->
<!-- h0&#45;&gt;Unknown -->
<g id="edge2" class="edge">
<title>h0&#45;&gt;Unknown</title>
<path fill="none" stroke="black" d="M1435.44,-471C1440.97,-471 1446.51,-471 1452.05,-471"/>
</g>
<!-- h0_0 -->
<g id="node41" class="node">
<title>h0_0</title>
<ellipse fill="none" stroke="black" cx="1434.5" cy="-416.5" rx="0.5" ry="0.5"/>
</g>
<!-- h0&#45;&gt;h0_0 -->
<g id="edge3" class="edge">
<title>h0&#45;&gt;h0_0</title>
<path fill="none" stroke="black" d="M1434.5,-469.85C1434.5,-466.84 1434.5,-420.06 1434.5,-417.14"/>
</g>
<!-- h0_0&#45;&gt;kaiyum_hamid -->
<g id="edge4" class="edge">
<title>h0_0&#45;&gt;kaiyum_hamid</title>
<path fill="none" stroke="black" d="M1434.5,-415.85C1434.5,-413.95 1434.5,-394.74 1434.5,-380.02"/>
</g>
<!-- h1&#45;&gt;AmbiaKhatun -->
<g id="edge6" class="edge">
<title>h1&#45;&gt;AmbiaKhatun</title>
<path fill="none" stroke="black" d="M1548.11,-362C1554.16,-362 1560.2,-362 1566.25,-362"/>
</g>
<!-- h1_2 -->
<g id="node45" class="node">
<title>h1_2</title>
<ellipse fill="none" stroke="black" cx="1547.5" cy="-307.5" rx="0.5" ry="0.5"/>
</g>
<!-- h1&#45;&gt;h1_2 -->
<g id="edge11" class="edge">
<title>h1&#45;&gt;h1_2</title>
<path fill="none" stroke="black" d="M1547.5,-360.85C1547.5,-357.84 1547.5,-311.06 1547.5,-308.14"/>
</g>
<!-- h1_0 -->
<g id="node43" class="node">
<title>h1_0</title>
<ellipse fill="none" stroke="black" cx="784.5" cy="-307.5" rx="0.5" ry="0.5"/>
</g>
<!-- h1_0&#45;&gt;fazlur_kaiyum -->
<g id="edge12" class="edge">
<title>h1_0&#45;&gt;fazlur_kaiyum</title>
<path fill="none" stroke="black" d="M784.38,-306.96C781.42,-305.97 721.97,-286.16 676.65,-271.05"/>
</g>
<!-- h1_1 -->
<g id="node44" class="node">
<title>h1_1</title>
<ellipse fill="none" stroke="black" cx="961.5" cy="-307.5" rx="0.5" ry="0.5"/>
</g>
<!-- h1_0&#45;&gt;h1_1 -->
<g id="edge7" class="edge">
<title>h1_0&#45;&gt;h1_1</title>
<path fill="none" stroke="black" d="M785.19,-307.5C843.73,-307.5 902.27,-307.5 960.81,-307.5"/>
</g>
<!-- h1_1&#45;&gt;bazlur_kaiyum -->
<g id="edge13" class="edge">
<title>h1_1&#45;&gt;bazlur_kaiyum</title>
<path fill="none" stroke="black" d="M961.5,-306.85C961.5,-304.95 961.5,-285.74 961.5,-271.02"/>
</g>
<!-- h1_1&#45;&gt;h1_2 -->
<g id="edge8" class="edge">
<title>h1_1&#45;&gt;h1_2</title>
<path fill="none" stroke="black" d="M962.07,-307.5C1157.02,-307.5 1351.98,-307.5 1546.93,-307.5"/>
</g>
<!-- h1_2&#45;&gt;ataur_kaiyum -->
<g id="edge14" class="edge">
<title>h1_2&#45;&gt;ataur_kaiyum</title>
<path fill="none" stroke="black" d="M1547.5,-306.85C1547.5,-304.95 1547.5,-285.74 1547.5,-271.02"/>
</g>
<!-- h1_3 -->
<g id="node46" class="node">
<title>h1_3</title>
<ellipse fill="none" stroke="black" cx="1972.5" cy="-307.5" rx="0.5" ry="0.5"/>
</g>
<!-- h1_2&#45;&gt;h1_3 -->
<g id="edge9" class="edge">
<title>h1_2&#45;&gt;h1_3</title>
<path fill="none" stroke="black" d="M1548.33,-307.5C1689.44,-307.5 1830.56,-307.5 1971.67,-307.5"/>
</g>
<!-- h1_3&#45;&gt;zakir_kaiyum -->
<g id="edge15" class="edge">
<title>h1_3&#45;&gt;zakir_kaiyum</title>
<path fill="none" stroke="black" d="M1972.5,-306.85C1972.5,-304.95 1972.5,-285.74 1972.5,-271.02"/>
</g>
<!-- h1_4 -->
<g id="node47" class="node">
<title>h1_4</title>
<ellipse fill="none" stroke="black" cx="2130.5" cy="-307.5" rx="0.5" ry="0.5"/>
</g>
<!-- h1_3&#45;&gt;h1_4 -->
<g id="edge10" class="edge">
<title>h1_3&#45;&gt;h1_4</title>
<path fill="none" stroke="black" d="M1973.12,-307.5C2025.37,-307.5 2077.63,-307.5 2129.89,-307.5"/>
</g>
<!-- h1_4&#45;&gt;jamila_kaiyum -->
<g id="edge16" class="edge">
<title>h1_4&#45;&gt;jamila_kaiyum</title>
<path fill="none" stroke="black" d="M2130.6,-306.96C2133.29,-305.97 2187.14,-286.16 2228.18,-271.05"/>
</g>
<!-- h2&#45;&gt;SufiaAkter -->
<g id="edge18" class="edge">
<title>h2&#45;&gt;SufiaAkter</title>
<path fill="none" stroke="black" d="M736.02,-253C742.17,-253 748.31,-253 754.46,-253"/>
</g>
<!-- h2_1 -->
<g id="node54" class="node">
<title>h2_1</title>
<ellipse fill="none" stroke="black" cx="299.5" cy="-198.5" rx="0.5" ry="0.5"/>
</g>
<!-- h2&#45;&gt;h2_1 -->
<g id="edge49" class="edge">
<title>h2&#45;&gt;h2_1</title>
<path fill="none" stroke="black" d="M735.47,-251.86C735.16,-250.49 732.46,-239.38 725.5,-235 685.61,-209.9 305.51,-199.17 299.57,-199"/>
</g>
<!-- h3&#45;&gt;ShahnazPervin -->
<g id="edge21" class="edge">
<title>h3&#45;&gt;ShahnazPervin</title>
<path fill="none" stroke="black" d="M1073.38,-253C1127.02,-253 1180.67,-253 1234.31,-253"/>
</g>
<!-- h3_2 -->
<g id="node58" class="node">
<title>h3_2</title>
<ellipse fill="none" stroke="black" cx="1036.5" cy="-198.5" rx="0.5" ry="0.5"/>
</g>
<!-- h3&#45;&gt;h3_2 -->
<g id="edge53" class="edge">
<title>h3&#45;&gt;h3_2</title>
<path fill="none" stroke="black" d="M1072.44,-251.89C1071.85,-250.8 1066.99,-241.88 1062.5,-235 1052.04,-218.99 1037.45,-200.21 1036.54,-199.06"/>
</g>
<!-- h5&#45;&gt;HalimaKhatun -->
<g id="edge24" class="edge">
<title>h5&#45;&gt;HalimaKhatun</title>
<path fill="none" stroke="black" d="M1698.25,-253C1709.29,-253 1720.33,-253 1731.36,-253"/>
</g>
<!-- h5_2 -->
<g id="node63" class="node">
<title>h5_2</title>
<ellipse fill="none" stroke="black" cx="1697.5" cy="-198.5" rx="0.5" ry="0.5"/>
</g>
<!-- h5&#45;&gt;h5_2 -->
<g id="edge58" class="edge">
<title>h5&#45;&gt;h5_2</title>
<path fill="none" stroke="black" d="M1697.5,-251.85C1697.5,-248.84 1697.5,-202.06 1697.5,-199.14"/>
</g>
<!-- h7&#45;&gt;RubiAkter -->
<g id="edge27" class="edge">
<title>h7&#45;&gt;RubiAkter</title>
<path fill="none" stroke="black" d="M2087.01,-253C2092.97,-253 2098.93,-253 2104.89,-253"/>
</g>
<!-- h7_1 -->
<g id="node67" class="node">
<title>h7_1</title>
<ellipse fill="none" stroke="black" cx="2090.5" cy="-198.5" rx="0.5" ry="0.5"/>
</g>
<!-- h7&#45;&gt;h7_1 -->
<g id="edge63" class="edge">
<title>h7&#45;&gt;h7_1</title>
<path fill="none" stroke="black" d="M2086.51,-251.85C2086.74,-248.84 2090.27,-202.06 2090.49,-199.14"/>
</g>
<!-- h8&#45;&gt;MdHannan -->
<g id="edge30" class="edge">
<title>h8&#45;&gt;MdHannan</title>
<path fill="none" stroke="black" d="M2459.04,-253C2465.19,-253 2471.34,-253 2477.49,-253"/>
</g>
<!-- h8_1 -->
<g id="node70" class="node">
<title>h8_1</title>
<ellipse fill="none" stroke="black" cx="2566.5" cy="-198.5" rx="0.5" ry="0.5"/>
</g>
<!-- h8&#45;&gt;h8_1 -->
<g id="edge66" class="edge">
<title>h8&#45;&gt;h8_1</title>
<path fill="none" stroke="black" d="M2458.54,-251.87C2458.92,-250.6 2462.19,-240.27 2468.5,-235 2503.57,-205.73 2564.56,-199.2 2566.45,-199"/>
</g>
<!-- h2_0 -->
<g id="node53" class="node">
<title>h2_0</title>
<ellipse fill="none" stroke="black" cx="133.5" cy="-198.5" rx="0.5" ry="0.5"/>
</g>
<!-- h2_0&#45;&gt;MdBakiMiazi -->
<g id="edge50" class="edge">
<title>h2_0&#45;&gt;MdBakiMiazi</title>
<path fill="none" stroke="black" d="M133.45,-197.96C132,-196.76 101.7,-171.57 80.34,-153.82"/>
</g>
<!-- h2_0&#45;&gt;h2_1 -->
<g id="edge31" class="edge">
<title>h2_0&#45;&gt;h2_1</title>
<path fill="none" stroke="black" d="M134.15,-198.5C189.05,-198.5 243.95,-198.5 298.85,-198.5"/>
</g>
<!-- h2_1&#45;&gt;MdSaifulIslamMiazi -->
<g id="edge51" class="edge">
<title>h2_1&#45;&gt;MdSaifulIslamMiazi</title>
<path fill="none" stroke="black" d="M299.44,-197.96C297.99,-196.78 267.96,-172.48 246.11,-154.8"/>
</g>
<!-- h2_2 -->
<g id="node55" class="node">
<title>h2_2</title>
<ellipse fill="none" stroke="black" cx="391.5" cy="-198.5" rx="0.5" ry="0.5"/>
</g>
<!-- h2_1&#45;&gt;h2_2 -->
<g id="edge32" class="edge">
<title>h2_1&#45;&gt;h2_2</title>
<path fill="none" stroke="black" d="M300.22,-198.5C330.41,-198.5 360.6,-198.5 390.79,-198.5"/>
</g>
<!-- h2_2&#45;&gt;MdZahirMiazi -->
<g id="edge52" class="edge">
<title>h2_2&#45;&gt;MdZahirMiazi</title>
<path fill="none" stroke="black" d="M391.5,-197.96C391.5,-196.76 391.5,-171.57 391.5,-153.82"/>
</g>
<!-- h3_0 -->
<g id="node56" class="node">
<title>h3_0</title>
<ellipse fill="none" stroke="black" cx="528.5" cy="-198.5" rx="0.5" ry="0.5"/>
</g>
<!-- h2_2&#45;&gt;h3_0 -->
<!-- h3_0&#45;&gt;ayuba_bazlur -->
<g id="edge54" class="edge">
<title>h3_0&#45;&gt;ayuba_bazlur</title>
<path fill="none" stroke="black" d="M528.5,-197.96C528.5,-196.78 528.5,-172.48 528.5,-154.8"/>
</g>
<!-- h3_1 -->
<g id="node57" class="node">
<title>h3_1</title>
<ellipse fill="none" stroke="black" cx="823.5" cy="-198.5" rx="0.5" ry="0.5"/>
</g>
<!-- h3_0&#45;&gt;h3_1 -->
<g id="edge34" class="edge">
<title>h3_0&#45;&gt;h3_1</title>
<path fill="none" stroke="black" d="M529.08,-198.5C627.03,-198.5 724.98,-198.5 822.92,-198.5"/>
</g>
<!-- h3_1&#45;&gt;MdAlAmin -->
<g id="edge55" class="edge">
<title>h3_1&#45;&gt;MdAlAmin</title>
<path fill="none" stroke="black" d="M823.5,-197.96C823.5,-196.94 823.5,-178.65 823.5,-162.29"/>
</g>
<!-- h3_1&#45;&gt;h3_2 -->
<g id="edge35" class="edge">
<title>h3_1&#45;&gt;h3_2</title>
<path fill="none" stroke="black" d="M824.33,-198.5C894.78,-198.5 965.22,-198.5 1035.67,-198.5"/>
</g>
<!-- h3_3 -->
<g id="node59" class="node">
<title>h3_3</title>
<ellipse fill="none" stroke="black" cx="1055.5" cy="-198.5" rx="0.5" ry="0.5"/>
</g>
<!-- h3_2&#45;&gt;h3_3 -->
<g id="edge36" class="edge">
<title>h3_2&#45;&gt;h3_3</title>
<path fill="none" stroke="black" d="M1037.09,-198.5C1043.04,-198.5 1048.98,-198.5 1054.92,-198.5"/>
</g>
<!-- h3_3&#45;&gt;NowshinLaylaArju -->
<g id="edge56" class="edge">
<title>h3_3&#45;&gt;NowshinLaylaArju</title>
<path fill="none" stroke="black" d="M1055.44,-197.96C1053.91,-196.78 1022.3,-172.48 999.3,-154.8"/>
</g>
<!-- h3_4 -->
<g id="node60" class="node">
<title>h3_4</title>
<ellipse fill="none" stroke="black" cx="1154.5" cy="-198.5" rx="0.5" ry="0.5"/>
</g>
<!-- h3_3&#45;&gt;h3_4 -->
<g id="edge37" class="edge">
<title>h3_3&#45;&gt;h3_4</title>
<path fill="none" stroke="black" d="M1056.27,-198.5C1088.76,-198.5 1121.25,-198.5 1153.73,-198.5"/>
</g>
<!-- h3_4&#45;&gt;MahdiHasnatSiyam -->
<g id="edge57" class="edge">
<title>h3_4&#45;&gt;MahdiHasnatSiyam</title>
<path fill="none" stroke="black" d="M1154.5,-197.96C1154.5,-196.78 1154.5,-172.48 1154.5,-154.8"/>
</g>
<!-- h5_0 -->
<g id="node61" class="node">
<title>h5_0</title>
<ellipse fill="none" stroke="black" cx="1312.5" cy="-198.5" rx="0.5" ry="0.5"/>
</g>
<!-- h3_4&#45;&gt;h5_0 -->
<!-- h5_0&#45;&gt;rehena_ataur -->
<g id="edge59" class="edge">
<title>h5_0&#45;&gt;rehena_ataur</title>
<path fill="none" stroke="black" d="M1312.5,-197.96C1312.5,-196.76 1312.5,-171.57 1312.5,-153.82"/>
</g>
<!-- h5_1 -->
<g id="node62" class="node">
<title>h5_1</title>
<ellipse fill="none" stroke="black" cx="1647.5" cy="-198.5" rx="0.5" ry="0.5"/>
</g>
<!-- h5_0&#45;&gt;h5_1 -->
<g id="edge39" class="edge">
<title>h5_0&#45;&gt;h5_1</title>
<path fill="none" stroke="black" d="M1313.15,-198.5C1424.39,-198.5 1535.62,-198.5 1646.85,-198.5"/>
</g>
<!-- h5_1&#45;&gt;MdRayhanIslamMiazi -->
<g id="edge60" class="edge">
<title>h5_1&#45;&gt;MdRayhanIslamMiazi</title>
<path fill="none" stroke="black" d="M1647.5,-197.96C1647.5,-196.78 1647.5,-172.48 1647.5,-154.8"/>
</g>
<!-- h5_1&#45;&gt;h5_2 -->
<g id="edge40" class="edge">
<title>h5_1&#45;&gt;h5_2</title>
<path fill="none" stroke="black" d="M1648.28,-198.5C1664.43,-198.5 1680.58,-198.5 1696.73,-198.5"/>
</g>
<!-- h5_3 -->
<g id="node64" class="node">
<title>h5_3</title>
<ellipse fill="none" stroke="black" cx="1823.5" cy="-198.5" rx="0.5" ry="0.5"/>
</g>
<!-- h5_2&#45;&gt;h5_3 -->
<g id="edge41" class="edge">
<title>h5_2&#45;&gt;h5_3</title>
<path fill="none" stroke="black" d="M1698.48,-198.5C1739.83,-198.5 1781.18,-198.5 1822.52,-198.5"/>
</g>
<!-- h5_3&#45;&gt;MdHabibMiazi -->
<g id="edge61" class="edge">
<title>h5_3&#45;&gt;MdHabibMiazi</title>
<path fill="none" stroke="black" d="M1823.5,-197.96C1823.5,-196.76 1823.5,-171.57 1823.5,-153.82"/>
</g>
<!-- h5_4 -->
<g id="node65" class="node">
<title>h5_4</title>
<ellipse fill="none" stroke="black" cx="1972.5" cy="-198.5" rx="0.5" ry="0.5"/>
</g>
<!-- h5_3&#45;&gt;h5_4 -->
<g id="edge42" class="edge">
<title>h5_3&#45;&gt;h5_4</title>
<path fill="none" stroke="black" d="M1824.08,-198.5C1873.36,-198.5 1922.64,-198.5 1971.92,-198.5"/>
</g>
<!-- h5_4&#45;&gt;MdSayedMiazi -->
<g id="edge62" class="edge">
<title>h5_4&#45;&gt;MdSayedMiazi</title>
<path fill="none" stroke="black" d="M1972.5,-197.96C1972.5,-196.78 1972.5,-172.48 1972.5,-154.8"/>
</g>
<!-- h7_0 -->
<g id="node66" class="node">
<title>h7_0</title>
<ellipse fill="none" stroke="black" cx="2071.5" cy="-198.5" rx="0.5" ry="0.5"/>
</g>
<!-- h5_4&#45;&gt;h7_0 -->
<!-- h7_0&#45;&gt;RakibulHasanRiaz -->
<g id="edge64" class="edge">
<title>h7_0&#45;&gt;RakibulHasanRiaz</title>
<path fill="none" stroke="black" d="M2071.54,-197.96C2072.75,-196.76 2098.14,-171.57 2116.04,-153.82"/>
</g>
<!-- h7_0&#45;&gt;h7_1 -->
<g id="edge44" class="edge">
<title>h7_0&#45;&gt;h7_1</title>
<path fill="none" stroke="black" d="M2072.09,-198.5C2078.04,-198.5 2083.98,-198.5 2089.92,-198.5"/>
</g>
<!-- h7_2 -->
<g id="node68" class="node">
<title>h7_2</title>
<ellipse fill="none" stroke="black" cx="2284.5" cy="-198.5" rx="0.5" ry="0.5"/>
</g>
<!-- h7_1&#45;&gt;h7_2 -->
<g id="edge45" class="edge">
<title>h7_1&#45;&gt;h7_2</title>
<path fill="none" stroke="black" d="M2091.26,-198.5C2155.42,-198.5 2219.58,-198.5 2283.75,-198.5"/>
</g>
<!-- h7_2&#45;&gt;JerinSultana -->
<g id="edge65" class="edge">
<title>h7_2&#45;&gt;JerinSultana</title>
<path fill="none" stroke="black" d="M2284.5,-197.96C2284.5,-196.76 2284.5,-171.57 2284.5,-153.82"/>
</g>
<!-- h8_0 -->
<g id="node69" class="node">
<title>h8_0</title>
<ellipse fill="none" stroke="black" cx="2423.5" cy="-198.5" rx="0.5" ry="0.5"/>
</g>
<!-- h7_2&#45;&gt;h8_0 -->
<!-- h8_0&#45;&gt;jasim_hannan -->
<g id="edge67" class="edge">
<title>h8_0&#45;&gt;jasim_hannan</title>
<path fill="none" stroke="black" d="M2423.5,-197.96C2423.5,-196.76 2423.5,-171.57 2423.5,-153.82"/>
</g>
<!-- h8_0&#45;&gt;h8_1 -->
<g id="edge47" class="edge">
<title>h8_0&#45;&gt;h8_1</title>
<path fill="none" stroke="black" d="M2424.06,-198.5C2471.35,-198.5 2518.65,-198.5 2565.94,-198.5"/>
</g>
<!-- h8_1&#45;&gt;MdMahi -->
<g id="edge68" class="edge">
<title>h8_1&#45;&gt;MdMahi</title>
<path fill="none" stroke="black" d="M2566.62,-197.94C2569.11,-196.79 2609.46,-178.02 2641.5,-162 2646.9,-159.3 2652.62,-156.38 2658.16,-153.52"/>
</g>
<!-- h8_2 -->
<g id="node71" class="node">
<title>h8_2</title>
<ellipse fill="none" stroke="black" cx="2694.5" cy="-198.5" rx="0.5" ry="0.5"/>
</g>
<!-- h8_1&#45;&gt;h8_2 -->
<g id="edge48" class="edge">
<title>h8_1&#45;&gt;h8_2</title>
<path fill="none" stroke="black" d="M2567,-198.5C2609.17,-198.5 2651.34,-198.5 2693.5,-198.5"/>
</g>
<!-- h8_2&#45;&gt;SarminAkter -->
<g id="edge69" class="edge">
<title>h8_2&#45;&gt;SarminAkter</title>
<path fill="none" stroke="black" d="M2694.58,-197.96C2696.73,-196.75 2742.04,-171.42 2773.81,-153.66"/>
</g>
<!-- h4&#45;&gt;MdJalalSarker -->
<g id="edge74" class="edge">
<title>h4&#45;&gt;MdJalalSarker</title>
<path fill="none" stroke="black" d="M603.15,-135.5C609.26,-135.5 615.37,-135.5 621.48,-135.5"/>
</g>
<!-- h4_1 -->
<g id="node76" class="node">
<title>h4_1</title>
<ellipse fill="none" stroke="black" cx="965.5" cy="-72.5" rx="0.5" ry="0.5"/>
</g>
<!-- h4&#45;&gt;h4_1 -->
<g id="edge97" class="edge">
<title>h4&#45;&gt;h4_1</title>
<path fill="none" stroke="black" d="M602.5,-134.45C602.53,-133.38 603.11,-116.13 612.5,-109 643.66,-85.35 960.49,-73.19 965.44,-73"/>
</g>
<!-- h6&#45;&gt;MdOmorFaruk -->
<g id="edge80" class="edge">
<title>h6&#45;&gt;MdOmorFaruk</title>
<path fill="none" stroke="black" d="M1388.16,-135.5C1394.23,-135.5 1400.31,-135.5 1406.39,-135.5"/>
</g>
<!-- h6_1 -->
<g id="node79" class="node">
<title>h6_1</title>
<ellipse fill="none" stroke="black" cx="1387.5" cy="-72.5" rx="0.5" ry="0.5"/>
</g>
<!-- h6&#45;&gt;h6_1 -->
<g id="edge100" class="edge">
<title>h6&#45;&gt;h6_1</title>
<path fill="none" stroke="black" d="M1387.5,-134.46C1387.5,-132.65 1387.5,-76.67 1387.5,-73.17"/>
</g>
<!-- h9&#45;&gt;ArinSultana -->
<g id="edge88" class="edge">
<title>h9&#45;&gt;ArinSultana</title>
<path fill="none" stroke="black" d="M2508.06,-135.5C2514.2,-135.5 2520.34,-135.5 2526.48,-135.5"/>
</g>
<!-- h9_0 -->
<g id="node81" class="node">
<title>h9_0</title>
<ellipse fill="none" stroke="black" cx="1623.5" cy="-72.5" rx="0.5" ry="0.5"/>
</g>
<!-- h9&#45;&gt;h9_0 -->
<g id="edge104" class="edge">
<title>h9&#45;&gt;h9_0</title>
<path fill="none" stroke="black" d="M2507.5,-134.45C2507.49,-133.36 2507.1,-115.84 2497.5,-109 2458.23,-81.02 1636.49,-73.12 1623.65,-73"/>
</g>
<!-- h4_0 -->
<g id="node75" class="node">
<title>h4_0</title>
<ellipse fill="none" stroke="black" cx="946.5" cy="-72.5" rx="0.5" ry="0.5"/>
</g>
<!-- h4_0&#45;&gt;RishadRahbarMahin -->
<g id="edge98" class="edge">
<title>h4_0&#45;&gt;RishadRahbarMahin</title>
<path fill="none" stroke="black" d="M946.5,-71.85C946.5,-69.95 946.5,-50.74 946.5,-36.02"/>
</g>
<!-- h4_0&#45;&gt;h4_1 -->
<g id="edge91" class="edge">
<title>h4_0&#45;&gt;h4_1</title>
<path fill="none" stroke="black" d="M947.09,-72.5C953.04,-72.5 958.98,-72.5 964.92,-72.5"/>
</g>
<!-- h4_2 -->
<g id="node77" class="node">
<title>h4_2</title>
<ellipse fill="none" stroke="black" cx="1121.5" cy="-72.5" rx="0.5" ry="0.5"/>
</g>
<!-- h4_1&#45;&gt;h4_2 -->
<g id="edge92" class="edge">
<title>h4_1&#45;&gt;h4_2</title>
<path fill="none" stroke="black" d="M966.11,-72.5C1017.7,-72.5 1069.3,-72.5 1120.89,-72.5"/>
</g>
<!-- h4_2&#45;&gt;SidratulMuntaha -->
<g id="edge99" class="edge">
<title>h4_2&#45;&gt;SidratulMuntaha</title>
<path fill="none" stroke="black" d="M1121.5,-71.85C1121.5,-69.95 1121.5,-50.74 1121.5,-36.02"/>
</g>
<!-- h6_0 -->
<g id="node78" class="node">
<title>h6_0</title>
<ellipse fill="none" stroke="black" cx="1264.5" cy="-72.5" rx="0.5" ry="0.5"/>
</g>
<!-- h4_2&#45;&gt;h6_0 -->
<!-- h6_0&#45;&gt;MdZunayed -->
<g id="edge101" class="edge">
<title>h6_0&#45;&gt;MdZunayed</title>
<path fill="none" stroke="black" d="M1264.5,-71.85C1264.5,-69.95 1264.5,-50.74 1264.5,-36.02"/>
</g>
<!-- h6_0&#45;&gt;h6_1 -->
<g id="edge94" class="edge">
<title>h6_0&#45;&gt;h6_1</title>
<path fill="none" stroke="black" d="M1265.46,-72.5C1305.82,-72.5 1346.18,-72.5 1386.55,-72.5"/>
</g>
<!-- h6_1&#45;&gt;MdZobayer -->
<g id="edge102" class="edge">
<title>h6_1&#45;&gt;MdZobayer</title>
<path fill="none" stroke="black" d="M1387.5,-71.85C1387.5,-69.95 1387.5,-50.74 1387.5,-36.02"/>
</g>
<!-- h6_2 -->
<g id="node80" class="node">
<title>h6_2</title>
<ellipse fill="none" stroke="black" cx="1496.5" cy="-72.5" rx="0.5" ry="0.5"/>
</g>
<!-- h6_1&#45;&gt;h6_2 -->
<g id="edge95" class="edge">
<title>h6_1&#45;&gt;h6_2</title>
<path fill="none" stroke="black" d="M1388.35,-72.5C1424.12,-72.5 1459.89,-72.5 1495.66,-72.5"/>
</g>
<!-- h6_2&#45;&gt;Sumaiya -->
<g id="edge103" class="edge">
<title>h6_2&#45;&gt;Sumaiya</title>
<path fill="none" stroke="black" d="M1496.5,-71.85C1496.5,-69.95 1496.5,-50.74 1496.5,-36.02"/>
</g>
<!-- h6_2&#45;&gt;h9_0 -->
<!-- h9_0&#45;&gt;AnishaMehzabin -->
<g id="edge105" class="edge">
<title>h9_0&#45;&gt;AnishaMehzabin</title>
<path fill="none" stroke="black" d="M1623.5,-71.85C1623.5,-69.95 1623.5,-50.74 1623.5,-36.02"/>
</g>
</g>
</svg>
