<?xml version="1.0" encoding="UTF-8" standalone="no"?>
<!DOCTYPE svg PUBLIC "-//W3C//DTD SVG 1.1//EN"
 "http://www.w3.org/Graphics/SVG/1.1/DTD/svg11.dtd">
<!-- Generated by graphviz version 2.43.0 (0)
 -->
<!-- Title: %3 Pages: 1 -->
<svg width="5153pt" height="514pt"
 viewBox="0.00 0.00 5153.00 514.00" xmlns="http://www.w3.org/2000/svg" xmlns:xlink="http://www.w3.org/1999/xlink">
<g id="graph0" class="graph" transform="scale(1 1) rotate(0) translate(4 510)">
<title>%3</title>
<polygon fill="#eed5b7" stroke="transparent" points="-4,4 -4,-510 5149,-510 5149,4 -4,4"/>
<!-- hamid_hanif -->
<g id="node1" class="node">
<title>hamid_hanif</title>
<polygon fill="none" stroke="black" points="2849.5,-429.5 2849.5,-505.5 3240.5,-505.5 3240.5,-429.5 2849.5,-429.5"/>
<text text-anchor="middle" x="3045" y="-490.3" font-family="Times,serif" font-size="14.00">মোহাম্মদ আব্দুল হামিদ মিয়াজী </text>
<text text-anchor="middle" x="3045" y="-475.3" font-family="Times,serif" font-size="14.00">gender : M</text>
<polyline fill="none" stroke="black" points="2849.5,-467.5 3240.5,-467.5 "/>
<text text-anchor="middle" x="3045" y="-452.3" font-family="Times,serif" font-size="14.00">Unknown </text>
<text text-anchor="middle" x="3045" y="-437.3" font-family="Times,serif" font-size="14.00">gender : F</text>
</g>
<!-- kaiyum_hamid -->
<g id="node2" class="node">
<title>kaiyum_hamid</title>
<polygon fill="none" stroke="black" points="2842.5,-316.5 2842.5,-392.5 3247.5,-392.5 3247.5,-316.5 2842.5,-316.5"/>
<text text-anchor="middle" x="3045" y="-377.3" font-family="Times,serif" font-size="14.00">মোহাম্মদ আব্দুল কাইয়ুম মিয়াজী </text>
<text text-anchor="middle" x="3045" y="-362.3" font-family="Times,serif" font-size="14.00">gender : M</text>
<polyline fill="none" stroke="black" points="2842.5,-354.5 3247.5,-354.5 "/>
<text text-anchor="middle" x="3045" y="-339.3" font-family="Times,serif" font-size="14.00">আম্বিয়া খাতুন</text>
<text text-anchor="middle" x="3045" y="-324.3" font-family="Times,serif" font-size="14.00">gender : F</text>
</g>
<!-- hamid_hanif&#45;&gt;kaiyum_hamid -->
<g id="edge1" class="edge">
<title>hamid_hanif:Unknown&#45;&gt;kaiyum_hamid:kaiyum_hamid</title>
<path fill="none" stroke="black" d="M3045,-429C3045,-413 3045,-409 3045,-393"/>
</g>
<!-- fazlur_kaiyum -->
<g id="node3" class="node">
<title>fazlur_kaiyum</title>
<polygon fill="none" stroke="black" points="490,-203.5 490,-279.5 848,-279.5 848,-203.5 490,-203.5"/>
<text text-anchor="middle" x="669" y="-264.3" font-family="Times,serif" font-size="14.00">মোহাম্মদ ফজলুর রহিম মিয়াজী</text>
<text text-anchor="middle" x="669" y="-249.3" font-family="Times,serif" font-size="14.00">gender : M</text>
<polyline fill="none" stroke="black" points="490,-241.5 848,-241.5 "/>
<text text-anchor="middle" x="669" y="-226.3" font-family="Times,serif" font-size="14.00">সুফিয়া খাতুন</text>
<text text-anchor="middle" x="669" y="-211.3" font-family="Times,serif" font-size="14.00">gender : F</text>
</g>
<!-- kaiyum_hamid&#45;&gt;fazlur_kaiyum -->
<g id="edge2" class="edge">
<title>kaiyum_hamid:ambia&#45;&gt;fazlur_kaiyum:fazlur_kaiyum</title>
<path fill="none" stroke="black" d="M2841,-335.5C1955.04,-335.5 1734.96,-260.5 849,-260.5"/>
</g>
<!-- bazlur_kaiyum -->
<g id="node4" class="node">
<title>bazlur_kaiyum</title>
<polygon fill="none" stroke="black" points="1699,-203.5 1699,-279.5 2057,-279.5 2057,-203.5 1699,-203.5"/>
<text text-anchor="middle" x="1878" y="-264.3" font-family="Times,serif" font-size="14.00">মোহাম্মদ বজলুর রহিম মিয়াজী</text>
<text text-anchor="middle" x="1878" y="-249.3" font-family="Times,serif" font-size="14.00">gender : M</text>
<polyline fill="none" stroke="black" points="1699,-241.5 2057,-241.5 "/>
<text text-anchor="middle" x="1878" y="-226.3" font-family="Times,serif" font-size="14.00">শাহনাজ পারভীন</text>
<text text-anchor="middle" x="1878" y="-211.3" font-family="Times,serif" font-size="14.00">gender : F</text>
</g>
<!-- kaiyum_hamid&#45;&gt;bazlur_kaiyum -->
<g id="edge3" class="edge">
<title>kaiyum_hamid:ambia&#45;&gt;bazlur_kaiyum:bazlur_kaiyum</title>
<path fill="none" stroke="black" d="M2841,-335.5C2491.41,-335.5 2407.59,-260.5 2058,-260.5"/>
</g>
<!-- ataur_kaiyum -->
<g id="node5" class="node">
<title>ataur_kaiyum</title>
<polygon fill="none" stroke="black" points="2859,-203.5 2859,-279.5 3231,-279.5 3231,-203.5 2859,-203.5"/>
<text text-anchor="middle" x="3045" y="-264.3" font-family="Times,serif" font-size="14.00">মোহাম্মদ আতাউর রহমান মিয়াজী</text>
<text text-anchor="middle" x="3045" y="-249.3" font-family="Times,serif" font-size="14.00">gender : M</text>
<polyline fill="none" stroke="black" points="2859,-241.5 3231,-241.5 "/>
<text text-anchor="middle" x="3045" y="-226.3" font-family="Times,serif" font-size="14.00">হালিমা আক্তার</text>
<text text-anchor="middle" x="3045" y="-211.3" font-family="Times,serif" font-size="14.00">gender : F</text>
</g>
<!-- kaiyum_hamid&#45;&gt;ataur_kaiyum -->
<g id="edge4" class="edge">
<title>kaiyum_hamid:ambia&#45;&gt;ataur_kaiyum:ataur_kaiyum</title>
<path fill="none" stroke="black" d="M3045,-316C3045,-300 3045,-296 3045,-280"/>
</g>
<!-- zakir_kaiyum -->
<g id="node6" class="node">
<title>zakir_kaiyum</title>
<polygon fill="none" stroke="black" points="3702,-203.5 3702,-279.5 4074,-279.5 4074,-203.5 3702,-203.5"/>
<text text-anchor="middle" x="3888" y="-264.3" font-family="Times,serif" font-size="14.00">মোহাম্মদ জাকির হোসেন মিয়াজী</text>
<text text-anchor="middle" x="3888" y="-249.3" font-family="Times,serif" font-size="14.00">gender : M</text>
<polyline fill="none" stroke="black" points="3702,-241.5 4074,-241.5 "/>
<text text-anchor="middle" x="3888" y="-226.3" font-family="Times,serif" font-size="14.00">রুবি আক্তার</text>
<text text-anchor="middle" x="3888" y="-211.3" font-family="Times,serif" font-size="14.00">gender : F</text>
</g>
<!-- kaiyum_hamid&#45;&gt;zakir_kaiyum -->
<g id="edge5" class="edge">
<title>kaiyum_hamid:ambia&#45;&gt;zakir_kaiyum:zakir_kaiyum</title>
<path fill="none" stroke="black" d="M3249,-335.5C3452.64,-335.5 3497.36,-260.5 3701,-260.5"/>
</g>
<!-- hannan -->
<g id="node7" class="node">
<title>hannan</title>
<polygon fill="none" stroke="black" points="4493.5,-203.5 4493.5,-279.5 4728.5,-279.5 4728.5,-203.5 4493.5,-203.5"/>
<text text-anchor="middle" x="4611" y="-264.3" font-family="Times,serif" font-size="14.00">মোহাম্মদ হান্নান</text>
<text text-anchor="middle" x="4611" y="-249.3" font-family="Times,serif" font-size="14.00">gender : M</text>
<polyline fill="none" stroke="black" points="4493.5,-241.5 4728.5,-241.5 "/>
<text text-anchor="middle" x="4611" y="-226.3" font-family="Times,serif" font-size="14.00">জামিলা খাতুন</text>
<text text-anchor="middle" x="4611" y="-211.3" font-family="Times,serif" font-size="14.00">gender : F</text>
</g>
<!-- kaiyum_hamid&#45;&gt;hannan -->
<g id="edge6" class="edge">
<title>kaiyum_hamid:ambia&#45;&gt;hannan:jamila_kaiyum</title>
<path fill="none" stroke="black" d="M3249,-335.5C3620.49,-335.5 3713.48,-318.22 4083,-280 4265.59,-261.12 4308.43,-222.5 4492,-222.5"/>
</g>
<!-- baki_fazlur -->
<g id="node8" class="node">
<title>baki_fazlur</title>
<polygon fill="none" stroke="black" points="0,-102 0,-140 282,-140 282,-102 0,-102"/>
<text text-anchor="middle" x="141" y="-124.8" font-family="Times,serif" font-size="14.00">মোহাম্মদ বাকি মিয়াজী</text>
<text text-anchor="middle" x="141" y="-109.8" font-family="Times,serif" font-size="14.00">gender : M</text>
</g>
<!-- fazlur_kaiyum&#45;&gt;baki_fazlur -->
<g id="edge7" class="edge">
<title>fazlur_kaiyum:sufia&#45;&gt;baki_fazlur:baki_fazlur</title>
<path fill="none" stroke="black" d="M489,-222.5C372.57,-222.5 242.68,-169.49 179.59,-140.09"/>
</g>
<!-- saiful_fazlur -->
<g id="node9" class="node">
<title>saiful_fazlur</title>
<polygon fill="none" stroke="black" points="300,-94.5 300,-147.5 686,-147.5 686,-94.5 300,-94.5"/>
<text text-anchor="middle" x="493" y="-132.3" font-family="Times,serif" font-size="14.00">মোহাম্মদ সাইফুল ইসলাম মিয়াজী</text>
<text text-anchor="middle" x="493" y="-117.3" font-family="Times,serif" font-size="14.00">gender : M</text>
<text text-anchor="middle" x="493" y="-102.3" font-family="Times,serif" font-size="14.00">ডাকনাম : নুরুল ইসলাম</text>
</g>
<!-- fazlur_kaiyum&#45;&gt;saiful_fazlur -->
<g id="edge8" class="edge">
<title>fazlur_kaiyum:sufia&#45;&gt;saiful_fazlur:saiful_fazlur</title>
<path fill="none" stroke="black" d="M489,-222.5C459.02,-222.5 470.62,-177.74 481.8,-147.67"/>
</g>
<!-- jahir_fazlur -->
<g id="node10" class="node">
<title>jahir_fazlur</title>
<polygon fill="none" stroke="black" points="704,-83 704,-159 986,-159 986,-83 704,-83"/>
<text text-anchor="middle" x="845" y="-143.8" font-family="Times,serif" font-size="14.00">মোহাম্মদ জহির মিয়াজী</text>
<text text-anchor="middle" x="845" y="-128.8" font-family="Times,serif" font-size="14.00">gender : M</text>
<polyline fill="none" stroke="black" points="704,-121 986,-121 "/>
<text text-anchor="middle" x="845" y="-105.8" font-family="Times,serif" font-size="14.00">রোকসানা পারভীন </text>
<text text-anchor="middle" x="845" y="-90.8" font-family="Times,serif" font-size="14.00">gender : F</text>
</g>
<!-- fazlur_kaiyum&#45;&gt;jahir_fazlur -->
<g id="edge9" class="edge">
<title>fazlur_kaiyum:sufia&#45;&gt;jahir_fazlur:jahir_fazlur</title>
<path fill="none" stroke="black" d="M849,-222.5C857.68,-222.5 853.35,-209.83 848,-203 806.78,-150.36 745.22,-212.14 704,-159.5 698.65,-152.67 694.32,-140 703,-140"/>
</g>
<!-- jalal_shahjahan -->
<g id="node11" class="node">
<title>jalal_shahjahan</title>
<polygon fill="none" stroke="black" points="1203,-75.5 1203,-166.5 1485,-166.5 1485,-75.5 1203,-75.5"/>
<text text-anchor="middle" x="1344" y="-151.3" font-family="Times,serif" font-size="14.00">মোহাম্মদ জালাল সরকার</text>
<text text-anchor="middle" x="1344" y="-136.3" font-family="Times,serif" font-size="14.00">gender : M</text>
<polyline fill="none" stroke="black" points="1203,-128.5 1485,-128.5 "/>
<text text-anchor="middle" x="1344" y="-113.3" font-family="Times,serif" font-size="14.00">আয়ুবা আনসারি</text>
<text text-anchor="middle" x="1344" y="-98.3" font-family="Times,serif" font-size="14.00">gender : F</text>
<text text-anchor="middle" x="1344" y="-83.3" font-family="Times,serif" font-size="14.00">ডাকনাম : মাকসুদা</text>
</g>
<!-- bazlur_kaiyum&#45;&gt;jalal_shahjahan -->
<g id="edge10" class="edge">
<title>bazlur_kaiyum:shahnaz&#45;&gt;jalal_shahjahan:ayuba_bazlur</title>
<path fill="none" stroke="black" d="M1698,-222.5C1651.02,-222.5 1524.76,-202.51 1494,-167 1484.47,-156 1500.55,-102 1486,-102"/>
</g>
<!-- amin_bazlur -->
<g id="node12" class="node">
<title>amin_bazlur</title>
<polygon fill="none" stroke="black" points="1503,-87 1503,-155 1747,-155 1747,-87 1503,-87"/>
<text text-anchor="middle" x="1625" y="-139.8" font-family="Times,serif" font-size="14.00">মোহাম্মদ আল আমিন</text>
<text text-anchor="middle" x="1625" y="-124.8" font-family="Times,serif" font-size="14.00">gender : M</text>
<text text-anchor="middle" x="1625" y="-109.8" font-family="Times,serif" font-size="14.00">জন্মসাল : ১৯৯২</text>
<text text-anchor="middle" x="1625" y="-94.8" font-family="Times,serif" font-size="14.00">ডাকনাম : মোজাম্মেল</text>
</g>
<!-- bazlur_kaiyum&#45;&gt;amin_bazlur -->
<g id="edge11" class="edge">
<title>bazlur_kaiyum:shahnaz&#45;&gt;amin_bazlur:amin_bazlur</title>
<path fill="none" stroke="black" d="M1698,-222.5C1664.03,-222.5 1644.31,-184.57 1634.12,-155.08"/>
</g>
<!-- arju_bazlur -->
<g id="node13" class="node">
<title>arju_bazlur</title>
<polygon fill="none" stroke="black" points="1765.5,-94.5 1765.5,-147.5 1990.5,-147.5 1990.5,-94.5 1765.5,-94.5"/>
<text text-anchor="middle" x="1878" y="-132.3" font-family="Times,serif" font-size="14.00">নওশিন লায়লা আরজু</text>
<text text-anchor="middle" x="1878" y="-117.3" font-family="Times,serif" font-size="14.00">gender : F</text>
<text text-anchor="middle" x="1878" y="-102.3" font-family="Times,serif" font-size="14.00">জন্মসাল : ১৯৯৭</text>
</g>
<!-- bazlur_kaiyum&#45;&gt;arju_bazlur -->
<g id="edge12" class="edge">
<title>bazlur_kaiyum:shahnaz&#45;&gt;arju_bazlur:arju_bazlur</title>
<path fill="none" stroke="black" d="M1878,-203C1878,-184.49 1878,-163.64 1878,-147.59"/>
</g>
<!-- mahdi_bazlur -->
<g id="node14" class="node">
<title>mahdi_bazlur</title>
<polygon fill="none" stroke="black" points="2009,-94.5 2009,-147.5 2381,-147.5 2381,-94.5 2009,-94.5"/>
<text text-anchor="middle" x="2195" y="-132.3" font-family="Times,serif" font-size="14.00">মোহাম্মদ মাহদী হাসনাত সিয়াম</text>
<text text-anchor="middle" x="2195" y="-117.3" font-family="Times,serif" font-size="14.00">gender : M</text>
<text text-anchor="middle" x="2195" y="-102.3" font-family="Times,serif" font-size="14.00">জন্মসাল : ১৯৯৯</text>
</g>
<!-- bazlur_kaiyum&#45;&gt;mahdi_bazlur -->
<g id="edge13" class="edge">
<title>bazlur_kaiyum:shahnaz&#45;&gt;mahdi_bazlur:mahdi_bazlur</title>
<path fill="none" stroke="black" d="M2058,-222.5C2108.32,-222.5 2152.22,-177.74 2176.04,-147.67"/>
</g>
<!-- bokul -->
<g id="node15" class="node">
<title>bokul</title>
<polygon fill="none" stroke="black" points="2399,-75.5 2399,-166.5 2653,-166.5 2653,-75.5 2399,-75.5"/>
<text text-anchor="middle" x="2526" y="-151.3" font-family="Times,serif" font-size="14.00">মোহাম্মদ ওমর ফারুক</text>
<text text-anchor="middle" x="2526" y="-136.3" font-family="Times,serif" font-size="14.00">gender : M</text>
<text text-anchor="middle" x="2526" y="-121.3" font-family="Times,serif" font-size="14.00">ডাকনাম : বকুল</text>
<polyline fill="none" stroke="black" points="2399,-113.5 2653,-113.5 "/>
<text text-anchor="middle" x="2526" y="-98.3" font-family="Times,serif" font-size="14.00">রেহেনা আক্তার</text>
<text text-anchor="middle" x="2526" y="-83.3" font-family="Times,serif" font-size="14.00">gender : F</text>
</g>
<!-- ataur_kaiyum&#45;&gt;bokul -->
<g id="edge14" class="edge">
<title>ataur_kaiyum:halima&#45;&gt;bokul:rehena_ataur</title>
<path fill="none" stroke="black" d="M2858,-222.5C2812.73,-222.5 2691.23,-201.56 2662,-167 2651.46,-154.54 2670.32,-94 2654,-94"/>
</g>
<!-- rayhan_ataur -->
<g id="node16" class="node">
<title>rayhan_ataur</title>
<polygon fill="none" stroke="black" points="2671,-94.5 2671,-147.5 3057,-147.5 3057,-94.5 2671,-94.5"/>
<text text-anchor="middle" x="2864" y="-132.3" font-family="Times,serif" font-size="14.00">মোহাম্মদ রায়হান ইসলাম মিয়াজী</text>
<text text-anchor="middle" x="2864" y="-117.3" font-family="Times,serif" font-size="14.00">gender : M</text>
<text text-anchor="middle" x="2864" y="-102.3" font-family="Times,serif" font-size="14.00">জন্মসাল : ১৯৯৬</text>
</g>
<!-- ataur_kaiyum&#45;&gt;rayhan_ataur -->
<g id="edge15" class="edge">
<title>ataur_kaiyum:halima&#45;&gt;rayhan_ataur:rayhan_ataur</title>
<path fill="none" stroke="black" d="M2858,-222.5C2827.99,-222.5 2840.48,-177.74 2852.26,-147.67"/>
</g>
<!-- habib_ataur -->
<g id="node17" class="node">
<title>habib_ataur</title>
<polygon fill="none" stroke="black" points="3075.5,-102 3075.5,-140 3376.5,-140 3376.5,-102 3075.5,-102"/>
<text text-anchor="middle" x="3226" y="-124.8" font-family="Times,serif" font-size="14.00">মোহাম্মদ হাবিব মিয়াজী </text>
<text text-anchor="middle" x="3226" y="-109.8" font-family="Times,serif" font-size="14.00">gender : M</text>
</g>
<!-- ataur_kaiyum&#45;&gt;habib_ataur -->
<g id="edge16" class="edge">
<title>ataur_kaiyum:halima&#45;&gt;habib_ataur:habib_ataur</title>
<path fill="none" stroke="black" d="M3232,-222.5C3264.66,-222.5 3246.98,-169.49 3234.66,-140.09"/>
</g>
<!-- sayed_ataur -->
<g id="node18" class="node">
<title>sayed_ataur</title>
<polygon fill="none" stroke="black" points="3395,-94.5 3395,-147.5 3677,-147.5 3677,-94.5 3395,-94.5"/>
<text text-anchor="middle" x="3536" y="-132.3" font-family="Times,serif" font-size="14.00">মোহাম্মদ সাঈদ মিয়াজী</text>
<text text-anchor="middle" x="3536" y="-117.3" font-family="Times,serif" font-size="14.00">gender : M</text>
<text text-anchor="middle" x="3536" y="-102.3" font-family="Times,serif" font-size="14.00">জন্মসাল : ২০০৪</text>
</g>
<!-- ataur_kaiyum&#45;&gt;sayed_ataur -->
<g id="edge17" class="edge">
<title>ataur_kaiyum:halima&#45;&gt;sayed_ataur:sayed_ataur</title>
<path fill="none" stroke="black" d="M3232,-222.5C3326.73,-222.5 3429.91,-177.61 3488.41,-147.54"/>
</g>
<!-- rakib_zakir -->
<g id="node19" class="node">
<title>rakib_zakir</title>
<polygon fill="none" stroke="black" points="3695,-102 3695,-140 4081,-140 4081,-102 3695,-102"/>
<text text-anchor="middle" x="3888" y="-124.8" font-family="Times,serif" font-size="14.00">মোহাম্মদ রাকিবুল হাসান রিয়াজ</text>
<text text-anchor="middle" x="3888" y="-109.8" font-family="Times,serif" font-size="14.00">gender : M</text>
</g>
<!-- zakir_kaiyum&#45;&gt;rakib_zakir -->
<g id="edge18" class="edge">
<title>zakir_kaiyum:rubi&#45;&gt;rakib_zakir:rakib_zakir</title>
<path fill="none" stroke="black" d="M3888,-203C3888,-181.5 3888,-156.84 3888,-140.22"/>
</g>
<!-- jerin_zakir -->
<g id="node20" class="node">
<title>jerin_zakir</title>
<polygon fill="none" stroke="black" points="4099,-102 4099,-140 4291,-140 4291,-102 4099,-102"/>
<text text-anchor="middle" x="4195" y="-124.8" font-family="Times,serif" font-size="14.00">জেরিন সুলতানা</text>
<text text-anchor="middle" x="4195" y="-109.8" font-family="Times,serif" font-size="14.00">gender : F</text>
</g>
<!-- zakir_kaiyum&#45;&gt;jerin_zakir -->
<g id="edge19" class="edge">
<title>zakir_kaiyum:rubi&#45;&gt;jerin_zakir:jerin_zakir</title>
<path fill="none" stroke="black" d="M4075,-222.5C4125.48,-222.5 4165.67,-169.49 4184.08,-140.09"/>
</g>
<!-- jasim_hannan -->
<g id="node21" class="node">
<title>jasim_hannan</title>
<polygon fill="none" stroke="black" points="4309,-83 4309,-159 4591,-159 4591,-83 4309,-83"/>
<text text-anchor="middle" x="4450" y="-143.8" font-family="Times,serif" font-size="14.00">মোহাম্মদ জসিম উদ্দিন</text>
<text text-anchor="middle" x="4450" y="-128.8" font-family="Times,serif" font-size="14.00">gender : M</text>
<polyline fill="none" stroke="black" points="4309,-121 4591,-121 "/>
<text text-anchor="middle" x="4450" y="-105.8" font-family="Times,serif" font-size="14.00">আরিন সুলতানা</text>
<text text-anchor="middle" x="4450" y="-90.8" font-family="Times,serif" font-size="14.00">gender : F</text>
</g>
<!-- hannan&#45;&gt;jasim_hannan -->
<g id="edge20" class="edge">
<title>hannan:jamila_kaiyum&#45;&gt;jasim_hannan:jasim_hannan</title>
<path fill="none" stroke="black" d="M4492,-222.5C4483.32,-222.5 4488.08,-210.15 4493,-203 4519.99,-163.73 4564.01,-198.77 4591,-159.5 4595.92,-152.35 4600.68,-140 4592,-140"/>
</g>
<!-- mahi_hannan -->
<g id="node22" class="node">
<title>mahi_hannan</title>
<polygon fill="none" stroke="black" points="4609.5,-83 4609.5,-159 4934.5,-159 4934.5,-83 4609.5,-83"/>
<text text-anchor="middle" x="4772" y="-143.8" font-family="Times,serif" font-size="14.00">মোহাম্মদ মহিউদ্দিন মাহি</text>
<text text-anchor="middle" x="4772" y="-128.8" font-family="Times,serif" font-size="14.00">gender : M</text>
<polyline fill="none" stroke="black" points="4609.5,-121 4934.5,-121 "/>
<text text-anchor="middle" x="4772" y="-105.8" font-family="Times,serif" font-size="14.00">সায়মা জাফরী</text>
<text text-anchor="middle" x="4772" y="-90.8" font-family="Times,serif" font-size="14.00">gender : F</text>
</g>
<!-- hannan&#45;&gt;mahi_hannan -->
<g id="edge21" class="edge">
<title>hannan:jamila_kaiyum&#45;&gt;mahi_hannan:mahi_hannan</title>
<path fill="none" stroke="black" d="M4730,-222.5C4738.68,-222.5 4734.16,-209.98 4729,-203 4695.25,-157.4 4642.75,-205.1 4609,-159.5 4603.84,-152.52 4599.32,-140 4608,-140"/>
</g>
<!-- sarmin_hannan -->
<g id="node23" class="node">
<title>sarmin_hannan</title>
<polygon fill="none" stroke="black" points="4953,-102 4953,-140 5145,-140 5145,-102 4953,-102"/>
<text text-anchor="middle" x="5049" y="-124.8" font-family="Times,serif" font-size="14.00">শারমিন আক্তার</text>
<text text-anchor="middle" x="5049" y="-109.8" font-family="Times,serif" font-size="14.00">gender : F</text>
</g>
<!-- hannan&#45;&gt;sarmin_hannan -->
<g id="edge22" class="edge">
<title>hannan:jamila_kaiyum&#45;&gt;sarmin_hannan:sarmin_hannan</title>
<path fill="none" stroke="black" d="M4730,-222.5C4837.52,-222.5 4956.23,-169.49 5013.81,-140.09"/>
</g>
<!-- zakia_jahir -->
<g id="node24" class="node">
<title>zakia_jahir</title>
<polygon fill="none" stroke="black" points="108,-0.5 108,-38.5 286,-38.5 286,-0.5 108,-0.5"/>
<text text-anchor="middle" x="197" y="-23.3" font-family="Times,serif" font-size="14.00">জাকিয়া আফরিন</text>
<text text-anchor="middle" x="197" y="-8.3" font-family="Times,serif" font-size="14.00">gender : F</text>
</g>
<!-- jahir_fazlur&#45;&gt;zakia_jahir -->
<g id="edge23" class="edge">
<title>jahir_fazlur:roksana&#45;&gt;zakia_jahir:zakia_jahir</title>
<path fill="none" stroke="black" d="M703,-102C690.48,-102 704.69,-82.92 695,-75 624.36,-17.26 376.19,-52.79 286,-39 285.06,-38.86 284.12,-38.71 283.17,-38.56"/>
</g>
<!-- zafor_jahir -->
<g id="node25" class="node">
<title>zafor_jahir</title>
<polygon fill="none" stroke="black" points="304,-0.5 304,-38.5 714,-38.5 714,-0.5 304,-0.5"/>
<text text-anchor="middle" x="509" y="-23.3" font-family="Times,serif" font-size="14.00">আবু সালেহ মোহাম্মদ জাফর মিয়াজী </text>
<text text-anchor="middle" x="509" y="-8.3" font-family="Times,serif" font-size="14.00">gender : M</text>
</g>
<!-- jahir_fazlur&#45;&gt;zafor_jahir -->
<g id="edge24" class="edge">
<title>jahir_fazlur:roksana&#45;&gt;zafor_jahir:zafor_jahir</title>
<path fill="none" stroke="black" d="M703,-102C690.48,-102 703.84,-83.86 695,-75 678.46,-58.42 657.18,-46.76 634.97,-38.56"/>
</g>
<!-- nusrat_jahir -->
<g id="node26" class="node">
<title>nusrat_jahir</title>
<polygon fill="none" stroke="black" points="732.5,-0.5 732.5,-38.5 957.5,-38.5 957.5,-0.5 732.5,-0.5"/>
<text text-anchor="middle" x="845" y="-23.3" font-family="Times,serif" font-size="14.00">নুসরাত জাহান মিম</text>
<text text-anchor="middle" x="845" y="-8.3" font-family="Times,serif" font-size="14.00">gender : F</text>
</g>
<!-- jahir_fazlur&#45;&gt;nusrat_jahir -->
<g id="edge25" class="edge">
<title>jahir_fazlur:roksana&#45;&gt;nusrat_jahir:nusrat_jahir</title>
<path fill="none" stroke="black" d="M845,-82C845,-67.46 845,-51.02 845,-38.65"/>
</g>
<!-- ilma_jahir -->
<g id="node27" class="node">
<title>ilma_jahir</title>
<polygon fill="none" stroke="black" points="976,-0.5 976,-38.5 1140,-38.5 1140,-0.5 976,-0.5"/>
<text text-anchor="middle" x="1058" y="-23.3" font-family="Times,serif" font-size="14.00">ইলমা মিয়াজী</text>
<text text-anchor="middle" x="1058" y="-8.3" font-family="Times,serif" font-size="14.00">gender : F</text>
</g>
<!-- jahir_fazlur&#45;&gt;ilma_jahir -->
<g id="edge26" class="edge">
<title>jahir_fazlur:roksana&#45;&gt;ilma_jahir:ilma_jahir</title>
<path fill="none" stroke="black" d="M987,-102C1020.26,-102 1041.34,-63.01 1051.28,-38.63"/>
</g>
<!-- mahin_jalal -->
<g id="node28" class="node">
<title>mahin_jalal</title>
<polygon fill="none" stroke="black" points="1158,-0.5 1158,-38.5 1530,-38.5 1530,-0.5 1158,-0.5"/>
<text text-anchor="middle" x="1344" y="-23.3" font-family="Times,serif" font-size="14.00">মোহাম্মদ রিশাদ রাহবার মাহিন</text>
<text text-anchor="middle" x="1344" y="-8.3" font-family="Times,serif" font-size="14.00">gender : M</text>
</g>
<!-- jalal_shahjahan&#45;&gt;mahin_jalal -->
<g id="edge27" class="edge">
<title>jalal_shahjahan:ayuba_bazlur&#45;&gt;mahin_jalal:mahin_jalal</title>
<path fill="none" stroke="black" d="M1344,-75C1344,-62.86 1344,-49.22 1344,-38.51"/>
</g>
<!-- muntaha_jalal -->
<g id="node29" class="node">
<title>muntaha_jalal</title>
<polygon fill="none" stroke="black" points="1548.5,-0.5 1548.5,-38.5 1783.5,-38.5 1783.5,-0.5 1548.5,-0.5"/>
<text text-anchor="middle" x="1666" y="-23.3" font-family="Times,serif" font-size="14.00">সিদরাতুল মুনতাহা</text>
<text text-anchor="middle" x="1666" y="-8.3" font-family="Times,serif" font-size="14.00">gender : F</text>
</g>
<!-- jalal_shahjahan&#45;&gt;muntaha_jalal -->
<g id="edge28" class="edge">
<title>jalal_shahjahan:ayuba_bazlur&#45;&gt;muntaha_jalal:muntaha_jalal</title>
<path fill="none" stroke="black" d="M1486,-102C1498.52,-102 1485.26,-83.96 1494,-75 1510.22,-58.39 1531.43,-46.74 1553.4,-38.58"/>
</g>
<!-- junayed_bokul -->
<g id="node30" class="node">
<title>junayed_bokul</title>
<polygon fill="none" stroke="black" points="2155.5,-0.5 2155.5,-38.5 2390.5,-38.5 2390.5,-0.5 2155.5,-0.5"/>
<text text-anchor="middle" x="2273" y="-23.3" font-family="Times,serif" font-size="14.00">মোহাম্মদ জুনায়েদ</text>
<text text-anchor="middle" x="2273" y="-8.3" font-family="Times,serif" font-size="14.00">gender : M</text>
</g>
<!-- bokul&#45;&gt;junayed_bokul -->
<g id="edge29" class="edge">
<title>bokul:rehena_ataur&#45;&gt;junayed_bokul:junayed_bokul</title>
<path fill="none" stroke="black" d="M2398,-94C2388.84,-94 2396.33,-81.62 2390,-75 2374.69,-59 2353.84,-47.09 2333.98,-38.5"/>
</g>
<!-- jobayer_bokul -->
<g id="node31" class="node">
<title>jobayer_bokul</title>
<polygon fill="none" stroke="black" points="2408.5,-0.5 2408.5,-38.5 2643.5,-38.5 2643.5,-0.5 2408.5,-0.5"/>
<text text-anchor="middle" x="2526" y="-23.3" font-family="Times,serif" font-size="14.00">মোহাম্মদ জোবায়ের</text>
<text text-anchor="middle" x="2526" y="-8.3" font-family="Times,serif" font-size="14.00">gender : M</text>
</g>
<!-- bokul&#45;&gt;jobayer_bokul -->
<g id="edge30" class="edge">
<title>bokul:rehena_ataur&#45;&gt;jobayer_bokul:jobayer_bokul</title>
<path fill="none" stroke="black" d="M2526,-75C2526,-62.86 2526,-49.22 2526,-38.51"/>
</g>
<!-- sumaiya_bokul -->
<g id="node32" class="node">
<title>sumaiya_bokul</title>
<polygon fill="none" stroke="black" points="2662,-0.5 2662,-38.5 2868,-38.5 2868,-0.5 2662,-0.5"/>
<text text-anchor="middle" x="2765" y="-23.3" font-family="Times,serif" font-size="14.00">সুমাইয়া আক্তার</text>
<text text-anchor="middle" x="2765" y="-8.3" font-family="Times,serif" font-size="14.00">gender : F</text>
</g>
<!-- bokul&#45;&gt;sumaiya_bokul -->
<g id="edge31" class="edge">
<title>bokul:rehena_ataur&#45;&gt;sumaiya_bokul:sumaiya_bokul</title>
<path fill="none" stroke="black" d="M2654,-94C2663.16,-94 2655.84,-81.78 2662,-75 2676.14,-59.44 2695.68,-47.39 2713.95,-38.55"/>
</g>
<!-- anisha_jasim -->
<g id="node33" class="node">
<title>anisha_jasim</title>
<polygon fill="none" stroke="black" points="4347,-0.5 4347,-38.5 4553,-38.5 4553,-0.5 4347,-0.5"/>
<text text-anchor="middle" x="4450" y="-23.3" font-family="Times,serif" font-size="14.00">আনিশা মেহজাবিন</text>
<text text-anchor="middle" x="4450" y="-8.3" font-family="Times,serif" font-size="14.00">gender : F</text>
</g>
<!-- jasim_hannan&#45;&gt;anisha_jasim -->
<g id="edge32" class="edge">
<title>jasim_hannan:arin&#45;&gt;anisha_jasim:anisha_jasim</title>
<path fill="none" stroke="black" d="M4450,-82C4450,-67.46 4450,-51.02 4450,-38.65"/>
</g>
</g>
</svg>
